<?xml version="1.0" encoding="utf-8"?>
<!-- Generator: Adobe Illustrator 19.1.0, SVG Export Plug-In . SVG Version: 6.00 Build 0)  -->
<svg version="1.1" id="Capa_1" xmlns="http://www.w3.org/2000/svg" xmlns:xlink="http://www.w3.org/1999/xlink" x="0px" y="0px"
	 viewBox="-101.7 22.4 22.2 17.6" style="enable-background:new -101.7 22.4 22.2 17.6;" xml:space="preserve">
<style type="text/css">
	.st0{fill:#FFFFFF;}
</style>
<g>
	<path class="st0" d="M-83.4,26l2.6,9.5l0,0c0.1,0.2,0.1,0.3,0.1,0.5c0,0.9-0.8,1.7-1.7,1.7l-2,0l-3-11l-1.2,0.4l2.2,8.3l0,0
		c0.1,0.2,0.1,0.4,0.1,0.6c0,0.9-0.8,1.7-1.7,1.7h-1.7l-3-11l-1.2,0.4l2.8,10.6H-98l-0.1,0c-0.9,0-1.7-0.8-1.7-1.7
		c0-0.1,0-0.2,0-0.3l2.6-9.8c0.2-0.7,0.9-1.1,1.6-1.1h0h5.3l0.2,0c0.6,0,1.1,0.5,1.1,1.1v0h0l3.7-1l0,0c0.1,0,0.2,0,0.4,0
		C-84.1,24.8-83.5,25.3-83.4,26L-83.4,26"/>
</g>
</svg>
