<?xml version="1.0" encoding="utf-8"?>
<!-- Generator: Adobe Illustrator 16.0.4, SVG Export Plug-In . SVG Version: 6.00 Build 0)  -->
<!DOCTYPE svg PUBLIC "-//W3C//DTD SVG 1.1//EN" "http://www.w3.org/Graphics/SVG/1.1/DTD/svg11.dtd">
<svg version="1.1" id="Capa_1" xmlns="http://www.w3.org/2000/svg" xmlns:xlink="http://www.w3.org/1999/xlink" x="0px" y="0px"
	 width="81px" height="40px" viewBox="0 0 81 40" enable-background="new 0 0 81 40" xml:space="preserve">
<g>
	<path fill="#FFFFFF" d="M50.486,2.311L54.1,15.559l-0.01-0.045c0.072,0.225,0.107,0.465,0.107,0.707
		c0,1.318-1.064,2.375-2.383,2.375h-2.82L44.826,3.197l-1.665,0.541l3.083,11.592l-0.012-0.025c0.105,0.27,0.162,0.559,0.162,0.863
		c0,1.318-1.072,2.377-2.392,2.377h-2.44l-4.165-15.4l-1.682,0.533l3.988,14.867h-9.697l-0.109-0.002
		c-1.32,0-2.378-1.078-2.378-2.396c0-0.154,0.017-0.307,0.046-0.451l3.672-13.688c0.328-0.934,1.213-1.605,2.26-1.605H33.47h7.381
		l0.327,0.006c0.827,0,1.494,0.666,1.494,1.49v0.041h0.008l5.139-1.348l0.064-0.016c0.168-0.043,0.346-0.066,0.527-0.066
		c1.055,0,1.926,0.775,2.072,1.791L50.486,2.311"/>
	<path fill="#FFFFFF" d="M0.5,29.26c0-0.092,0.062-0.154,0.154-0.154h1.342c0.139,0,0.216,0.047,0.247,0.154l1.744,5.908h0.061
		l1.697-5.908c0.031-0.107,0.108-0.154,0.246-0.154h1.328c0.092,0,0.154,0.062,0.154,0.154v10.184c0,0.09-0.062,0.154-0.154,0.154
		H6.132c-0.093,0-0.154-0.064-0.154-0.154v-6.635H5.885l-1.358,4.768c-0.031,0.092-0.092,0.154-0.201,0.154H3.647
		c-0.107,0-0.17-0.062-0.201-0.154l-1.357-4.768H1.996v6.635c0,0.09-0.062,0.154-0.155,0.154H0.654
		c-0.093,0-0.154-0.064-0.154-0.154V29.26z"/>
	<path fill="#FFFFFF" d="M15.365,29.26c0.032-0.092,0.077-0.154,0.171-0.154h1.297c0.092,0,0.152,0.062,0.169,0.154l2.222,10.184
		c0.015,0.09-0.03,0.154-0.124,0.154h-1.312c-0.107,0-0.154-0.064-0.169-0.154l-0.418-2.115h-2.083l-0.415,2.115
		c-0.017,0.09-0.062,0.154-0.171,0.154h-1.311c-0.093,0-0.14-0.064-0.124-0.154L15.365,29.26z M16.94,35.939l-0.741-3.904h-0.046
		l-0.772,3.904H16.94z"/>
	<path fill="#FFFFFF" d="M28.83,39.598c-0.093,0-0.14-0.033-0.169-0.107l-1.281-4.182h-0.262h-0.524
		c-0.062,0-0.093,0.029-0.093,0.092v4.043c0,0.09-0.062,0.154-0.154,0.154h-1.342c-0.094,0-0.156-0.064-0.156-0.154V29.26
		c0-0.092,0.062-0.154,0.156-0.154h2.113c1.866,0,2.992,0.818,2.992,3.117c0,1.373-0.463,2.236-1.249,2.684l1.481,4.537
		c0.03,0.076,0,0.154-0.078,0.154H28.83z M28.46,32.223c0-1.236-0.4-1.621-1.326-1.621h-0.54c-0.062,0-0.093,0.031-0.093,0.094
		v3.055c0,0.061,0.031,0.092,0.093,0.092h0.54C28.06,33.842,28.46,33.473,28.46,32.223"/>
	<path fill="#FFFFFF" d="M37.511,39.598c-0.092,0-0.154-0.064-0.154-0.154v-8.748c0-0.062-0.031-0.094-0.092-0.094h-1.605
		c-0.092,0-0.154-0.061-0.154-0.154V29.26c0-0.092,0.062-0.154,0.154-0.154h5.045c0.093,0,0.154,0.062,0.154,0.154v1.188
		c0,0.094-0.062,0.154-0.154,0.154H39.1c-0.062,0-0.093,0.031-0.093,0.094v8.748c0,0.09-0.062,0.154-0.154,0.154H37.511z"/>
	<path fill="#FFFFFF" d="M46.518,29.26c0-0.092,0.061-0.154,0.154-0.154h1.342c0.092,0,0.152,0.062,0.152,0.154v10.184
		c0,0.09-0.061,0.154-0.152,0.154h-1.342c-0.094,0-0.154-0.064-0.154-0.154V29.26z"/>
	<path fill="#FFFFFF" d="M54.318,37.916c0-0.094,0.062-0.156,0.154-0.156h1.312c0.092,0,0.154,0.062,0.154,0.156v1.527
		c0,0.092-0.062,0.154-0.154,0.154h-1.312c-0.092,0-0.154-0.062-0.154-0.154V37.916z"/>
	<path fill="#FFFFFF" d="M62.092,29.26c0-0.092,0.062-0.154,0.152-0.154h1.344c0.139,0,0.215,0.047,0.248,0.154l1.742,5.908h0.061
		l1.699-5.908c0.029-0.107,0.107-0.154,0.246-0.154h1.328c0.09,0,0.152,0.062,0.152,0.154v10.184c0,0.09-0.062,0.154-0.152,0.154
		h-1.189c-0.092,0-0.154-0.064-0.154-0.154v-6.635h-0.092l-1.357,4.768c-0.031,0.092-0.094,0.154-0.203,0.154h-0.678
		c-0.107,0-0.17-0.062-0.199-0.154l-1.357-4.768h-0.094v6.635c0,0.09-0.062,0.154-0.156,0.154h-1.188
		c-0.09,0-0.152-0.064-0.152-0.154V29.26z"/>
	<path fill="#FFFFFF" d="M79.01,39.598c-0.092,0-0.141-0.064-0.17-0.154l-1.219-3.334H77.59l-1.219,3.334
		c-0.031,0.09-0.076,0.154-0.17,0.154h-1.357c-0.092,0-0.154-0.064-0.123-0.154l2.053-5.324l-1.867-4.859
		c-0.031-0.092,0.031-0.154,0.123-0.154h1.359c0.09,0,0.137,0.062,0.168,0.154l1.033,2.977h0.031l1.035-2.977
		c0.029-0.092,0.074-0.154,0.168-0.154h1.357c0.094,0,0.156,0.062,0.123,0.154l-1.881,4.859l2.068,5.324
		c0.029,0.09-0.031,0.154-0.125,0.154H79.01z"/>
</g>
</svg>
