<svg id="Capa_1" data-name="Capa 1" xmlns="http://www.w3.org/2000/svg" viewBox="0 0 173.12 102.3"><title>martimx</title><path d="M103.21,21.24l6.13,22.48V43.64a4,4,0,0,1-3.82,5.2h-4.8l-7.11-26.1-2.82.92L96,43.33h0a4,4,0,0,1-3.79,5.5H88.07L81,22.65l-2.85.9,6.77,25.23H68.28a4,4,0,0,1-4-4s0,0,0-.07a3.88,3.88,0,0,1,.08-0.76l6.19-23.23A4.06,4.06,0,0,1,74.38,18h13a2.53,2.53,0,0,1,2.53,2.53v0.08h0l8.81-2.29h0.11a3.56,3.56,0,0,1,4.41,2.92h0"/><path d="M18.4,67a0.25,0.25,0,0,1,.24-0.26h2.3a0.37,0.37,0,0,1,.42.26l3,10h0.1l2.88-10a0.37,0.37,0,0,1,.38-0.3H30a0.25,0.25,0,0,1,.26.24s0,0,0,0V84.24a0.25,0.25,0,0,1-.24.26H28a0.25,0.25,0,0,1-.25-0.25h0V73H27.54l-2.3,8.09a0.34,0.34,0,0,1-.34.26H23.72a0.34,0.34,0,0,1-.34-0.26L21.1,73H20.94V84.24a0.25,0.25,0,0,1-.22.26h-2a0.25,0.25,0,0,1-.26-0.24s0,0,0,0V67H18.4Z"/><path d="M43.62,67a0.31,0.31,0,0,1,.29-0.26h2.2a0.29,0.29,0,0,1,.29.26l3.77,17.28a0.2,0.2,0,0,1-.13.25H47.72a0.27,0.27,0,0,1-.29-0.25h0l-0.71-3.63H43.2l-0.71,3.59a0.27,0.27,0,0,1-.28.26H40a0.2,0.2,0,0,1-.21-0.26Zm2.67,11.3L45,71.68H45L43.65,78.3h2.64Z"/><path d="M66.47,84.5a0.26,0.26,0,0,1-.29-0.18L64,77.23H62.72a0.14,0.14,0,0,0-.16.16v6.86a0.25,0.25,0,0,1-.24.26H60a0.25,0.25,0,0,1-.26-0.27V67A0.25,0.25,0,0,1,60,66.74h3.61c3.17,0,5.08,1.39,5.08,5.29,0,2.33-.79,3.8-2.12,4.55L69,84.28a0.17,0.17,0,0,1-.05.23l-0.08,0H66.47v0ZM65.84,72c0-2.09-.68-2.75-2.25-2.75H62.72a0.14,0.14,0,0,0-.16.16v5.18a0.14,0.14,0,0,0,.12.16h1c1.57,0,2.25-.63,2.25-2.75"/><path d="M81.19,84.5a0.25,0.25,0,0,1-.26-0.24s0,0,0,0V69.4a0.14,0.14,0,0,0-.12-0.16H78.05A0.25,0.25,0,0,1,77.79,69h0V67A0.25,0.25,0,0,1,78,66.74h8.58a0.25,0.25,0,0,1,.26.24s0,0,0,0v2a0.25,0.25,0,0,1-.24.26H83.89a0.14,0.14,0,0,0-.16.16V84.24a0.25,0.25,0,0,1-.24.26h-2.3Z"/><rect x="96.48" y="66.7" width="2.8" height="17.8" rx="0.26" ry="0.26"/><rect x="109.71" y="81.38" width="2.75" height="3.11" rx="0.26" ry="0.26"/><path d="M122.9,67a0.25,0.25,0,0,1,.24-0.26h2.3a0.37,0.37,0,0,1,.42.26l3,10H129l2.88-10a0.37,0.37,0,0,1,.42-0.26h2.25a0.25,0.25,0,0,1,.21.26V84.24a0.25,0.25,0,0,1-.24.26h-2a0.25,0.25,0,0,1-.26-0.24s0,0,0,0V73H132l-2.32,8.07a0.34,0.34,0,0,1-.34.26h-1.15a0.34,0.34,0,0,1-.34-0.26L125.6,73h-0.16V84.24a0.25,0.25,0,0,1-.24.26h-2a0.25,0.25,0,0,1-.26-0.24s0,0,0,0V67h0Z"/><path d="M151.61,84.5a0.3,0.3,0,0,1-.29-0.26l-2.07-5.65H149.2l-2.07,5.65a0.31,0.31,0,0,1-.29.26h-2.3a0.19,0.19,0,0,1-.21-0.26l3.48-9L144.64,67a0.19,0.19,0,0,1,.21-0.26h2.3a0.3,0.3,0,0,1,.29.26l1.76,5h0.05L151,67a0.3,0.3,0,0,1,.29-0.26h2.3a0.19,0.19,0,0,1,.21.26l-3.19,8.25,3.51,9a0.19,0.19,0,0,1-.21.26h-2.3Z"/></svg>