<?xml version="1.0" encoding="utf-8"?>
<!-- Generator: Adobe Illustrator 19.2.1, SVG Export Plug-In . SVG Version: 6.00 Build 0)  -->
<svg version="1.1" id="Capa_1" xmlns="http://www.w3.org/2000/svg" xmlns:xlink="http://www.w3.org/1999/xlink" x="0px" y="0px"
	 viewBox="0 0 110 25" style="enable-background:new 0 0 110 25;" xml:space="preserve">
<style type="text/css">
	.st0{fill:#FFFFFF;}
</style>
<g>
	<path class="st0" d="M102.4,7.4l2.6,9.5l0,0c0,0.2,0.1,0.3,0.1,0.5c0,0.9-0.8,1.7-1.7,1.7l-2,0l-3-11l-1.2,0.4l2.2,8.3l0,0
		c0.1,0.2,0.1,0.4,0.1,0.6c0,0.9-0.8,1.7-1.7,1.7H96L93,8l-1.2,0.4L94.7,19h-6.9l-0.1,0c-0.9,0-1.7-0.8-1.7-1.7c0-0.1,0-0.2,0-0.3
		l2.6-9.8C88.9,6.5,89.5,6,90.2,6h0h5.3l0.2,0c0.6,0,1.1,0.5,1.1,1.1v0h0l3.7-1l0,0c0.1,0,0.2,0,0.4,0
		C101.6,6.1,102.2,6.6,102.4,7.4L102.4,7.4"/>
	<path class="st0" d="M5,7.3c0-0.1,0.1-0.1,0.1-0.1h1.3c0.1,0,0.2,0,0.2,0.1l1.6,5.5h0.1l1.6-5.5c0-0.1,0.1-0.1,0.2-0.1h1.2
		c0.1,0,0.1,0.1,0.1,0.1v9.5c0,0.1-0.1,0.1-0.1,0.1h-1.1c-0.1,0-0.1-0.1-0.1-0.1v-6.2H10L8.8,15c0,0.1-0.1,0.1-0.2,0.1H7.9
		c-0.1,0-0.2-0.1-0.2-0.1l-1.3-4.4H6.4v6.2c0,0.1-0.1,0.1-0.1,0.1H5.1c-0.1,0-0.1-0.1-0.1-0.1V7.3z"/>
	<path class="st0" d="M18.9,7.3c0-0.1,0.1-0.1,0.2-0.1h1.2c0.1,0,0.1,0.1,0.2,0.1l2.1,9.5c0,0.1,0,0.1-0.1,0.1h-1.2
		c-0.1,0-0.1-0.1-0.2-0.1l-0.4-2h-1.9l-0.4,2c0,0.1-0.1,0.1-0.2,0.1h-1.2c-0.1,0-0.1-0.1-0.1-0.1L18.9,7.3z M20.3,13.5l-0.7-3.6h0
		l-0.7,3.6H20.3z"/>
	<path class="st0" d="M31.4,16.9c-0.1,0-0.1,0-0.2-0.1l-1.2-3.9h-0.2h-0.5c-0.1,0-0.1,0-0.1,0.1v3.8c0,0.1-0.1,0.1-0.1,0.1h-1.3
		c-0.1,0-0.1-0.1-0.1-0.1V7.3c0-0.1,0.1-0.1,0.1-0.1h2c1.7,0,2.8,0.8,2.8,2.9c0,1.3-0.4,2.1-1.2,2.5l1.4,4.2c0,0.1,0,0.1-0.1,0.1
		H31.4z M31.1,10c0-1.2-0.4-1.5-1.2-1.5h-0.5c-0.1,0-0.1,0-0.1,0.1v2.8c0,0.1,0,0.1,0.1,0.1h0.5C30.7,11.6,31.1,11.2,31.1,10"/>
	<path class="st0" d="M39.5,16.9c-0.1,0-0.1-0.1-0.1-0.1V8.6c0-0.1,0-0.1-0.1-0.1h-1.5c-0.1,0-0.1-0.1-0.1-0.1V7.3
		c0-0.1,0.1-0.1,0.1-0.1h4.7c0.1,0,0.1,0.1,0.1,0.1v1.1c0,0.1-0.1,0.1-0.1,0.1H41c-0.1,0-0.1,0-0.1,0.1v8.2c0,0.1-0.1,0.1-0.1,0.1
		H39.5z"/>
	<path class="st0" d="M47.9,7.3c0-0.1,0.1-0.1,0.1-0.1h1.3c0.1,0,0.1,0.1,0.1,0.1v9.5c0,0.1-0.1,0.1-0.1,0.1h-1.3
		c-0.1,0-0.1-0.1-0.1-0.1V7.3z"/>
	<path class="st0" d="M55.2,15.4c0-0.1,0.1-0.1,0.1-0.1h1.2c0.1,0,0.1,0.1,0.1,0.1v1.4c0,0.1-0.1,0.1-0.1,0.1h-1.2
		c-0.1,0-0.1-0.1-0.1-0.1V15.4z"/>
	<path class="st0" d="M62.4,7.3c0-0.1,0.1-0.1,0.1-0.1h1.3c0.1,0,0.2,0,0.2,0.1l1.6,5.5h0.1l1.6-5.5c0-0.1,0.1-0.1,0.2-0.1h1.2
		c0.1,0,0.1,0.1,0.1,0.1v9.5c0,0.1-0.1,0.1-0.1,0.1h-1.1c-0.1,0-0.1-0.1-0.1-0.1v-6.2h-0.1L66.2,15c0,0.1-0.1,0.1-0.2,0.1h-0.6
		c-0.1,0-0.2-0.1-0.2-0.1l-1.3-4.4h-0.1v6.2c0,0.1-0.1,0.1-0.1,0.1h-1.1c-0.1,0-0.1-0.1-0.1-0.1V7.3z"/>
	<path class="st0" d="M78.2,16.9c-0.1,0-0.1-0.1-0.2-0.1l-1.1-3.1h0l-1.1,3.1c0,0.1-0.1,0.1-0.2,0.1h-1.3c-0.1,0-0.1-0.1-0.1-0.1
		l1.9-5l-1.7-4.5c0-0.1,0-0.1,0.1-0.1h1.3c0.1,0,0.1,0.1,0.2,0.1l1,2.8h0l1-2.8c0-0.1,0.1-0.1,0.2-0.1h1.3c0.1,0,0.1,0.1,0.1,0.1
		l-1.8,4.5l1.9,5c0,0.1,0,0.1-0.1,0.1H78.2z"/>
</g>
</svg>
