<?xml version="1.0" encoding="utf-8"?>
<!-- Generator: Adobe Illustrator 16.0.4, SVG Export Plug-In . SVG Version: 6.00 Build 0)  -->
<!DOCTYPE svg PUBLIC "-//W3C//DTD SVG 1.1//EN" "http://www.w3.org/Graphics/SVG/1.1/DTD/svg11.dtd">
<svg version="1.1" id="Capa_1" xmlns="http://www.w3.org/2000/svg" xmlns:xlink="http://www.w3.org/1999/xlink" x="0px" y="0px"
	 width="102.565px" height="17.647px" viewBox="0 0 102.565 17.647" enable-background="new 0 0 102.565 17.647"
	 xml:space="preserve">
<g>
	<path fill="#FFFFFF" d="M98.635,3.695l2.578,9.45l-0.006-0.032c0.051,0.16,0.076,0.332,0.076,0.505
		c0,0.941-0.758,1.694-1.701,1.693l-2.01,0.001L94.598,4.327L93.41,4.714l2.199,8.27l-0.008-0.02
		c0.074,0.192,0.115,0.399,0.115,0.616c0,0.94-0.764,1.696-1.707,1.696h-1.74L89.299,4.289L88.1,4.67l2.844,10.606h-6.918
		l-0.076-0.003c-0.943,0-1.697-0.769-1.697-1.709c0-0.109,0.012-0.218,0.033-0.321l2.619-9.764c0.234-0.666,0.865-1.145,1.611-1.145
		h-0.02h5.266l0.234,0.003c0.59,0,1.064,0.476,1.064,1.063v0.029h0.006l3.668-0.961l0.045-0.012
		c0.119-0.031,0.246-0.048,0.377-0.048c0.75,0,1.373,0.554,1.477,1.278L98.635,3.695"/>
	<path fill="#FFFFFF" d="M1.283,3.603c0-0.087,0.058-0.144,0.144-0.144h1.251c0.13,0,0.202,0.043,0.231,0.144l1.626,5.512h0.057
		l1.583-5.512c0.029-0.101,0.1-0.144,0.23-0.144h1.238c0.086,0,0.144,0.057,0.144,0.144V13.1c0,0.086-0.058,0.144-0.144,0.144H6.535
		c-0.086,0-0.144-0.058-0.144-0.144V6.912H6.305l-1.266,4.446c-0.03,0.086-0.087,0.145-0.188,0.145H4.218
		c-0.1,0-0.158-0.059-0.186-0.145L2.765,6.912H2.678V13.1c0,0.086-0.057,0.144-0.144,0.144H1.427c-0.086,0-0.144-0.058-0.144-0.144
		V3.603z"/>
	<path fill="#FFFFFF" d="M15.147,3.604c0.029-0.087,0.072-0.145,0.159-0.145h1.209c0.086,0,0.144,0.058,0.158,0.145l2.072,9.495
		c0.014,0.086-0.029,0.145-0.116,0.145h-1.223c-0.1,0-0.144-0.059-0.158-0.145l-0.389-1.971h-1.942l-0.388,1.971
		c-0.015,0.086-0.058,0.145-0.159,0.145h-1.223c-0.086,0-0.129-0.059-0.115-0.145L15.147,3.604z M16.615,9.833l-0.691-3.641h-0.042
		l-0.721,3.641H16.615z"/>
	<path fill="#FFFFFF" d="M27.704,13.243c-0.086,0-0.129-0.029-0.158-0.102l-1.194-3.898h-0.244h-0.49
		c-0.057,0-0.087,0.029-0.087,0.086v3.77c0,0.086-0.056,0.145-0.143,0.145h-1.252c-0.086,0-0.144-0.059-0.144-0.145V3.603
		c0-0.086,0.058-0.145,0.144-0.145h1.972c1.74,0,2.791,0.764,2.791,2.907c0,1.281-0.432,2.086-1.165,2.503l1.381,4.23
		c0.028,0.072,0,0.145-0.072,0.145H27.704z M27.359,6.365c0-1.15-0.374-1.511-1.237-1.511h-0.504c-0.057,0-0.087,0.029-0.087,0.087
		v2.848c0,0.059,0.03,0.088,0.087,0.088h0.504C26.985,7.877,27.359,7.531,27.359,6.365"/>
	<path fill="#FFFFFF" d="M35.8,13.243c-0.086,0-0.144-0.059-0.144-0.145V4.941c0-0.058-0.028-0.087-0.086-0.087h-1.496
		c-0.086,0-0.144-0.057-0.144-0.145V3.603c0-0.086,0.058-0.144,0.144-0.144h4.704c0.088,0,0.144,0.058,0.144,0.144V4.71
		c0,0.088-0.056,0.145-0.144,0.145h-1.496c-0.058,0-0.086,0.029-0.086,0.087v8.157c0,0.086-0.058,0.145-0.144,0.145H35.8z"/>
	<path fill="#FFFFFF" d="M44.199,3.603c0-0.087,0.058-0.144,0.144-0.144h1.251c0.087,0,0.144,0.057,0.144,0.144V13.1
		c0,0.086-0.057,0.144-0.144,0.144h-1.251c-0.086,0-0.144-0.058-0.144-0.144V3.603z"/>
	<path fill="#FFFFFF" d="M51.475,11.675c0-0.087,0.059-0.145,0.145-0.145h1.225c0.086,0,0.145,0.058,0.145,0.145v1.424
		c0,0.088-0.059,0.145-0.145,0.145h-1.225c-0.086,0-0.145-0.057-0.145-0.145V11.675z"/>
	<path fill="#FFFFFF" d="M58.725,3.603c0-0.087,0.059-0.144,0.145-0.144h1.252c0.129,0,0.201,0.043,0.23,0.144l1.625,5.512h0.059
		l1.582-5.512c0.029-0.101,0.1-0.144,0.23-0.144h1.238c0.086,0,0.143,0.057,0.143,0.144V13.1c0,0.086-0.057,0.144-0.143,0.144
		h-1.109c-0.086,0-0.143-0.058-0.143-0.144V6.912h-0.086l-1.268,4.446c-0.029,0.086-0.086,0.145-0.188,0.145H61.66
		c-0.1,0-0.158-0.059-0.186-0.145l-1.268-4.446h-0.086V13.1c0,0.086-0.059,0.144-0.145,0.144h-1.107
		c-0.086,0-0.145-0.058-0.145-0.144V3.603z"/>
	<path fill="#FFFFFF" d="M74.502,13.243c-0.086,0-0.129-0.059-0.156-0.145l-1.139-3.107H73.18l-1.137,3.107
		c-0.029,0.086-0.072,0.145-0.16,0.145h-1.266c-0.086,0-0.143-0.059-0.115-0.145l1.914-4.963l-1.74-4.533
		c-0.029-0.086,0.029-0.144,0.115-0.144h1.266c0.088,0,0.131,0.058,0.158,0.144l0.965,2.776h0.027l0.965-2.776
		c0.029-0.086,0.072-0.144,0.158-0.144h1.268c0.086,0,0.143,0.058,0.113,0.144l-1.754,4.533l1.928,4.963
		c0.027,0.086-0.029,0.145-0.115,0.145H74.502z"/>
</g>
</svg>
