<?xml version="1.0" encoding="utf-8"?>
<!-- Generator: Adobe Illustrator 19.2.1, SVG Export Plug-In . SVG Version: 6.00 Build 0)  -->
<svg version="1.1" id="Capa_1" xmlns="http://www.w3.org/2000/svg" xmlns:xlink="http://www.w3.org/1999/xlink" x="0px" y="0px"
	 viewBox="0 0 160 150" style="enable-background:new 0 0 160 150;" xml:space="preserve">
<style type="text/css">
	.st0{fill:#AA1127;}
	.st1{font-family:'DINNextLTPro-BoldCondensed';}
	.st2{font-size:162.8614px;}
	.st3{letter-spacing:-6;}
	.st4{fill:#FFFFFF;}
	.st5{fill:#2E5291;}
</style>
<g>
	<circle class="st0" cx="127" cy="110" r="20"/>
	<text transform="matrix(1 0 0 1 15.3555 128.5406)"><tspan x="0" y="0" class="st0 st1 st2 st3">4</tspan><tspan x="61.2" y="0" class="st0 st1 st2">0</tspan></text>
	<text transform="matrix(1 0 0 1 13 125.5123)"><tspan x="0" y="0" class="st4 st1 st2 st3">4</tspan><tspan x="61.2" y="0" class="st4 st1 st2">0</tspan></text>
	<g>
		<circle class="st5" cx="125" cy="106.9" r="20"/>
		<g>
			<path class="st4" d="M114.8,105c-0.2-0.7-0.3-1.2-0.3-4c0-2.7,0.1-3.3,0.3-4c0.5-1.5,1.7-2.4,3.6-2.4c2,0,3.2,0.9,3.7,2.4
				c0.2,0.7,0.3,1.2,0.3,4c0,2.8,0,3.3-0.3,4c-0.5,1.5-1.7,2.3-3.7,2.3C116.5,107.3,115.3,106.5,114.8,105z M119.2,104.2
				c0.1-0.2,0.1-0.5,0.1-3.3c0-2.7,0-3-0.1-3.2c-0.1-0.3-0.4-0.5-0.8-0.5s-0.7,0.2-0.8,0.5c-0.1,0.2-0.1,0.5-0.1,3.2
				c0,2.8,0,3.1,0.1,3.3c0.1,0.3,0.4,0.5,0.8,0.5S119.1,104.6,119.2,104.2z M127.9,94.9c0.1-0.2,0.2-0.4,0.5-0.4h2.4
				c0.2,0,0.3,0.1,0.2,0.4l-9,24.1c-0.1,0.2-0.2,0.4-0.5,0.4h-2.4c-0.2,0-0.3-0.1-0.2-0.4L127.9,94.9z M127.6,112.9
				c0-2.8,0.1-3.3,0.3-4c0.5-1.5,1.7-2.3,3.6-2.3c2,0,3.2,0.9,3.7,2.3c0.2,0.7,0.3,1.2,0.3,4c0,2.7,0,3.3-0.3,4
				c-0.5,1.5-1.7,2.4-3.7,2.4c-1.9,0-3.2-0.9-3.6-2.4C127.6,116.2,127.6,115.6,127.6,112.9z M131.5,116.7c0.4,0,0.7-0.2,0.8-0.5
				c0.1-0.2,0.1-0.5,0.1-3.2c0-2.8,0-3.1-0.1-3.3c-0.1-0.3-0.4-0.5-0.8-0.5c-0.4,0-0.7,0.2-0.8,0.5c-0.1,0.2-0.1,0.5-0.1,3.3
				c0,2.7,0,3,0.1,3.2C130.8,116.5,131.1,116.7,131.5,116.7z"/>
		</g>
	</g>
</g>
</svg>
