<svg id="Capa_1" data-name="Capa 1" xmlns="http://www.w3.org/2000/svg" viewBox="0 0 184.67 26.83"><defs><style>.cls-1{fill:#fff;}</style></defs><title>martimx</title><path class="cls-1" d="M177.57,3.92l4.64,17V20.88a3.05,3.05,0,0,1-2.92,4h-3.62L170.3,5.06l-2.14.69,4,14.89v0a3.06,3.06,0,0,1-2.86,4.16h-3.13L160.76,5l-2.16.68,5.12,19.09H151.13a3.06,3.06,0,0,1-3.05-3.08,2.92,2.92,0,0,1,.06-0.58l4.72-17.57a3.07,3.07,0,0,1,2.9-2.06h9.86a1.91,1.91,0,0,1,1.92,1.91V3.45h0l6.6-1.73,0.08,0a2.69,2.69,0,0,1,3.34,2.21h0"/><path class="cls-1" d="M2.33,3.76A0.24,0.24,0,0,1,2.59,3.5H4.84a0.37,0.37,0,0,1,.42.26l2.93,9.92h0.1l2.85-9.92a0.36,0.36,0,0,1,.41-0.26h2.23a0.24,0.24,0,0,1,.26.26V20.85a0.25,0.25,0,0,1-.26.26h-2a0.25,0.25,0,0,1-.26-0.26V9.71H11.37l-2.28,8a0.34,0.34,0,0,1-.34.26H7.62a0.33,0.33,0,0,1-.34-0.26L5,9.71H4.84V20.85a0.24,0.24,0,0,1-.26.26h-2a0.25,0.25,0,0,1-.26-0.26V3.76Z"/><path class="cls-1" d="M27.29,3.76a0.3,0.3,0,0,1,.29-0.26h2.18a0.28,0.28,0,0,1,.28.26l3.73,17.09a0.2,0.2,0,0,1-.21.26h-2.2a0.27,0.27,0,0,1-.28-0.26l-0.7-3.55h-3.5l-0.7,3.55a0.27,0.27,0,0,1-.29.26h-2.2a0.2,0.2,0,0,1-.21-0.26ZM29.93,15L28.69,8.42H28.61L27.31,15h2.62Z"/><path class="cls-1" d="M49.89,21.11a0.26,0.26,0,0,1-.28-0.18l-2.15-7H46.14a0.14,0.14,0,0,0-.16.16v6.79a0.24,0.24,0,0,1-.26.26H43.47a0.25,0.25,0,0,1-.26-0.26V3.76a0.24,0.24,0,0,1,.26-0.26H47c3.13,0,5,1.37,5,5.23,0,2.3-.78,3.76-2.1,4.51l2.49,7.62a0.17,0.17,0,0,1-.13.26H49.89ZM49.27,8.73C49.27,6.66,48.6,6,47,6H46.14a0.14,0.14,0,0,0-.16.16v5.13a0.14,0.14,0,0,0,.16.16H47c1.55,0,2.23-.62,2.23-2.72"/><path class="cls-1" d="M64.46,21.11a0.25,0.25,0,0,1-.26-0.26V6.17A0.14,0.14,0,0,0,64,6H61.36a0.24,0.24,0,0,1-.26-0.26v-2a0.24,0.24,0,0,1,.26-0.26h8.47a0.24,0.24,0,0,1,.26.26v2a0.24,0.24,0,0,1-.26.26H67.13a0.14,0.14,0,0,0-.16.16V20.85a0.25,0.25,0,0,1-.26.26H64.46Z"/><rect class="cls-1" x="79.58" y="3.5" width="2.77" height="17.61" rx="0.26" ry="0.26"/><rect class="cls-1" x="92.68" y="18.03" width="2.72" height="3.08" rx="0.26" ry="0.26"/><path class="cls-1" d="M105.73,3.76A0.24,0.24,0,0,1,106,3.5h2.25a0.37,0.37,0,0,1,.42.26l2.93,9.92h0.1l2.85-9.92a0.36,0.36,0,0,1,.41-0.26h2.23a0.24,0.24,0,0,1,.26.26V20.85a0.25,0.25,0,0,1-.26.26h-2a0.25,0.25,0,0,1-.26-0.26V9.71h-0.15l-2.28,8a0.34,0.34,0,0,1-.34.26H111a0.33,0.33,0,0,1-.34-0.26l-2.28-8h-0.16V20.85a0.24,0.24,0,0,1-.26.26h-2a0.25,0.25,0,0,1-.26-0.26V3.76Z"/><path class="cls-1" d="M134.13,21.11a0.3,0.3,0,0,1-.28-0.26l-2-5.59h-0.05l-2,5.59a0.3,0.3,0,0,1-.29.26h-2.28a0.19,0.19,0,0,1-.21-0.26l3.44-8.94-3.13-8.16a0.19,0.19,0,0,1,.21-0.26h2.28a0.3,0.3,0,0,1,.28.26l1.74,5h0.05l1.74-5a0.3,0.3,0,0,1,.28-0.26h2.28a0.19,0.19,0,0,1,.21.26l-3.16,8.16,3.47,8.94a0.19,0.19,0,0,1-.21.26h-2.28Z"/></svg>