<?xml version="1.0" encoding="utf-8"?>
<!-- Generator: Adobe Illustrator 19.2.1, SVG Export Plug-In . SVG Version: 6.00 Build 0)  -->
<svg version="1.1" xmlns="http://www.w3.org/2000/svg" xmlns:xlink="http://www.w3.org/1999/xlink" x="0px" y="0px"
	 viewBox="0 0 792 612" style="enable-background:new 0 0 792 612;" xml:space="preserve">
<style type="text/css">
	.st0{fill:#FFFFFF;}
</style>
<g id="Capa_2">
</g>
<g id="Capa_1">
	<path class="st0" d="M750.4,264.8l23.7,85.9v-0.5c0.5,1.4,0.5,3.3,0.5,4.6c0,8.3-7,15.3-15.3,15.3h-18.1l-27-99.9l-10.7,3.7
		l20,75.3l0,0c0.5,1.9,0.9,3.7,0.9,5.6c0,8.3-7,15.3-15.3,15.3h-15.8l-27-99.9l-11.1,3.3l26,96.6h-63.1h-0.9
		c-8.3,0-15.3-7-15.3-15.8c0-0.9,0-1.9,0.5-2.8l23.7-88.7c2.3-6.1,7.9-10.2,14.8-10.2l0,0h47.9h2.3c5.6,0,9.8,4.2,9.8,9.8v0.5l0,0
		l33.5-8.9h0.5c0.9-0.5,2.3-0.5,3.3-0.5C743.5,253.2,749,258.4,750.4,264.8L750.4,264.8"/>
	<path class="st0" d="M26.4,278.5c0-0.5,0.5-0.9,0.9-0.9h8.9c0.9,0,1.4,0.5,1.4,0.9L48.7,317h0.5l11.1-38.5c0-0.9,0.9-0.9,1.4-0.9
		h8.9c0.5,0,0.9,0.5,0.9,0.9v65.9c0,0.5-0.5,0.9-0.9,0.9h-7.9c-0.5,0-0.9-0.5-0.9-0.9v-43.2h-0.5l-8.9,31.1c0,0.5-0.5,0.9-1.4,0.9
		h-4.6c-0.9,0-0.9-0.5-1.4-0.9l-8.9-31.1h-0.5v43.2c0,0.5-0.5,0.9-0.9,0.9h-7.4c-0.5,0-0.9-0.5-0.9-0.9L26.4,278.5L26.4,278.5z"/>
	<path class="st0" d="M122.9,278.5c0-0.5,0.5-0.9,0.9-0.9h8.3c0.5,0,0.9,0.5,0.9,0.9l14.4,65.9c0,0.5,0,0.9-0.9,0.9h-7.9
		c-0.9,0-0.9-0.5-0.9-0.9l-2.8-13.9h-13.5l-2.8,13.9c0,0.5-0.5,0.9-0.9,0.9h-8.3c-0.5,0-0.9-0.5-0.9-0.9L122.9,278.5z M133.2,322.1
		l-4.6-25.5h-0.5l-5.1,25.5H133.2z"/>
	<path class="st0" d="M210.7,345.1c-0.5,0-0.9,0-0.9-0.9l-8.3-27h-1.9h-3.3c-0.5,0-0.5,0-0.5,0.5v26.5c0,0.5-0.5,0.9-0.9,0.9h-8.9
		c-0.5,0-0.9-0.5-0.9-0.9v-65.9c0-0.5,0.5-0.9,0.9-0.9H200c12,0,19.5,5.1,19.5,20.4c0,8.9-2.8,14.4-7.9,17.6l9.8,29.2
		c0,0.5,0,0.9-0.5,0.9h-10.2L210.7,345.1L210.7,345.1z M208,297.2c0-7.9-2.8-10.7-8.9-10.7h-3.7c-0.5,0-0.5,0-0.5,0.5v20
		c0,0.5,0,0.5,0.5,0.5h3.7C205.6,307.5,208,305.1,208,297.2"/>
	<path class="st0" d="M266.9,345.3c-0.5,0-0.9-0.5-0.9-0.9v-56.6c0-0.5,0-0.5-0.5-0.5h-10.7c-0.5,0-0.9-0.5-0.9-0.9v-7.9
		c0-0.5,0.5-0.9,0.9-0.9h32.9c0.5,0,0.9,0.5,0.9,0.9v7.9c0,0.5-0.5,0.9-0.9,0.9h-10.2c-0.5,0-0.5,0-0.5,0.5v56.6
		c0,0.5-0.5,0.9-0.9,0.9H266.9z"/>
	<path class="st0" d="M325.4,278.5c0-0.5,0.5-0.9,0.9-0.9h8.9c0.5,0,0.9,0.5,0.9,0.9v65.9c0,0.5-0.5,0.9-0.9,0.9h-8.9
		c-0.5,0-0.9-0.5-0.9-0.9V278.5z"/>
	<path class="st0" d="M376,306.5c0-0.5,0.5-0.9,0.9-0.9h8.3c0.5,0,0.9,0.5,0.9,0.9v9.8c0,0.5-0.5,0.9-0.9,0.9H377
		c-0.5,0-0.9-0.5-0.9-0.9V306.5z"/>
	<path class="st0" d="M426.6,278.5c0-0.5,0.5-0.9,0.9-0.9h8.9c0.9,0,1.4,0.5,1.4,0.9l11.1,38.5h0.5l11.1-38.5c0-0.9,0.9-0.9,1.4-0.9
		h8.9c0.5,0,0.9,0.5,0.9,0.9v65.9c0,0.5-0.5,0.9-0.9,0.9h-7.9c-0.5,0-0.9-0.5-0.9-0.9v-43.2h-0.5l-8.9,31.1c0,0.5-0.5,0.9-1.4,0.9
		h-4.6c-0.9,0-0.9-0.5-1.4-0.9l-8.9-31.1h-0.5v43.2c0,0.5-0.5,0.9-0.9,0.9h-7.9c-0.5,0-0.9-0.5-0.9-0.9v-65.9H426.6z"/>
	<path class="st0" d="M536.7,345.3c-0.5,0-0.9-0.5-0.9-0.9l-7.9-21.8l0,0l-7.9,21.8c0,0.5-0.5,0.9-0.9,0.9h-8.9
		c-0.5,0-0.9-0.5-0.9-0.9l13.5-34.4l-12.2-31.6c0-0.5,0-0.9,0.9-0.9h8.9c0.5,0,0.9,0.5,0.9,0.9l6.5,19.5l0,0l6.5-19.5
		c0-0.5,0.5-0.9,0.9-0.9h8.9c0.5,0,0.9,0.5,0.9,0.9L533,310l13.5,34.4c0,0.5,0,0.9-0.9,0.9L536.7,345.3L536.7,345.3z"/>
</g>
</svg>
