<?xml version="1.0" encoding="utf-8"?>
<!-- Generator: Adobe Illustrator 19.2.1, SVG Export Plug-In . SVG Version: 6.00 Build 0)  -->
<svg version="1.1" id="Capa_1" xmlns="http://www.w3.org/2000/svg" xmlns:xlink="http://www.w3.org/1999/xlink" x="0px" y="0px"
	 viewBox="0 0 110 110" style="enable-background:new 0 0 110 110;" xml:space="preserve">
<style type="text/css">
	.st0{enable-background:new    ;}
	.st1{fill:#FFFFFF;}
	.st2{fill:none;stroke:#FFFFFF;stroke-width:2;stroke-miterlimit:10;}
</style>
<g class="st0">
	<path class="st1" d="M24,69.8h-4.5V55.6l-4.4,1.3v-3.4l8.4-2.9H24V69.8z"/>
</g>
<g class="st0">
	<path class="st1" d="M40,55.8c0,0.9-0.2,1.8-0.7,2.5c-0.5,0.7-1.1,1.3-1.9,1.7c0.9,0.4,1.6,1.1,2.2,1.8c0.5,0.8,0.8,1.7,0.8,2.8
		c0,1.7-0.6,3.1-1.8,4.1c-1.2,1-2.8,1.5-4.9,1.5c-2.1,0-3.7-0.5-4.9-1.5c-1.2-1-1.8-2.3-1.8-4.1c0-1,0.3-1.9,0.8-2.7
		s1.3-1.4,2.2-1.9c-0.8-0.4-1.5-1-1.9-1.7s-0.7-1.5-0.7-2.5c0-1.7,0.6-3,1.7-4s2.7-1.5,4.6-1.5c1.9,0,3.5,0.5,4.6,1.5
		S40,54.1,40,55.8z M35.9,64.2c0-0.8-0.2-1.4-0.6-1.8c-0.4-0.4-0.9-0.6-1.6-0.6s-1.2,0.2-1.6,0.6c-0.4,0.4-0.6,1-0.6,1.8
		c0,0.8,0.2,1.4,0.6,1.8c0.4,0.4,1,0.7,1.6,0.7c0.7,0,1.2-0.2,1.6-0.7S35.9,64.9,35.9,64.2z M33.7,53.8c-0.6,0-1.1,0.2-1.4,0.6
		c-0.3,0.4-0.5,0.9-0.5,1.6c0,0.7,0.2,1.2,0.5,1.7s0.8,0.6,1.4,0.6c0.6,0,1.1-0.2,1.4-0.6c0.3-0.4,0.5-1,0.5-1.7
		c0-0.7-0.2-1.2-0.5-1.6S34.3,53.8,33.7,53.8z"/>
	<path class="st1" d="M55.8,50.6L60.1,64l4.3-13.4h6.1v19.2h-4.6v-4.5l0.4-9.2l-4.6,13.7h-3.1l-4.7-13.7l0.4,9.2v4.5h-4.6V50.6H55.8
		z"/>
	<path class="st1" d="M83.3,64.7c0-0.7-0.2-1.2-0.7-1.6c-0.5-0.4-1.3-0.8-2.5-1.2s-2.2-0.8-3-1.2c-2.5-1.2-3.7-2.9-3.7-5
		c0-1.1,0.3-2,0.9-2.8c0.6-0.8,1.5-1.4,2.6-1.9c1.1-0.5,2.4-0.7,3.8-0.7c1.4,0,2.6,0.2,3.7,0.7c1.1,0.5,1.9,1.2,2.6,2.1
		c0.6,0.9,0.9,1.9,0.9,3.1h-4.6c0-0.8-0.2-1.4-0.7-1.8c-0.5-0.4-1.1-0.6-1.9-0.6c-0.8,0-1.5,0.2-2,0.5c-0.5,0.4-0.7,0.8-0.7,1.4
		c0,0.5,0.3,0.9,0.8,1.3c0.5,0.4,1.5,0.8,2.8,1.2c1.3,0.4,2.4,0.9,3.3,1.4c2.1,1.2,3.1,2.8,3.1,4.9c0,1.7-0.6,3-1.9,4
		c-1.3,1-3,1.4-5.2,1.4c-1.6,0-3-0.3-4.2-0.8c-1.3-0.6-2.2-1.3-2.8-2.3c-0.6-1-1-2.1-1-3.4h4.6c0,1,0.3,1.8,0.8,2.3
		c0.5,0.5,1.4,0.7,2.6,0.7c0.8,0,1.4-0.2,1.8-0.5C83,65.8,83.3,65.3,83.3,64.7z"/>
	<path class="st1" d="M95.2,69.8h-4.6V50.6h4.6V69.8z"/>
</g>
<g class="st0">
	<path class="st1" d="M22.4,78.3c-0.1,0.8-0.4,1.5-0.9,2c-0.6,0.5-1.3,0.7-2.2,0.7c-1,0-1.8-0.3-2.4-1c-0.6-0.7-0.9-1.6-0.9-2.8
		v-0.5c0-0.8,0.1-1.4,0.4-2s0.6-1,1.1-1.3c0.5-0.3,1.1-0.5,1.7-0.5c0.9,0,1.6,0.2,2.2,0.7c0.6,0.5,0.9,1.2,1,2.1h-1.6
		c0-0.5-0.2-0.9-0.4-1.1c-0.2-0.2-0.6-0.3-1.1-0.3c-0.5,0-0.9,0.2-1.2,0.6s-0.4,1-0.4,1.8v0.6c0,0.9,0.1,1.5,0.4,1.9
		c0.3,0.4,0.7,0.6,1.2,0.6c0.5,0,0.9-0.1,1.1-0.3s0.4-0.6,0.4-1.1H22.4z"/>
	<path class="st1" d="M29.9,77.2c0,0.8-0.1,1.5-0.4,2s-0.7,1-1.2,1.4c-0.5,0.3-1.1,0.5-1.8,0.5c-0.7,0-1.2-0.2-1.8-0.5
		c-0.5-0.3-0.9-0.8-1.2-1.3c-0.3-0.6-0.4-1.3-0.4-2v-0.4c0-0.8,0.1-1.5,0.4-2.1c0.3-0.6,0.7-1,1.2-1.4s1.1-0.5,1.8-0.5
		c0.7,0,1.2,0.2,1.8,0.5s0.9,0.8,1.2,1.4c0.3,0.6,0.4,1.3,0.4,2V77.2z M28.3,76.8c0-0.8-0.1-1.5-0.4-1.9s-0.7-0.6-1.3-0.6
		c-0.5,0-1,0.2-1.3,0.6s-0.4,1-0.4,1.9v0.4c0,0.8,0.1,1.4,0.4,1.9s0.7,0.7,1.3,0.7c0.5,0,1-0.2,1.3-0.6s0.4-1.1,0.4-1.9V76.8z"/>
	<path class="st1" d="M37.5,80.9h-1.6l-3.2-5.2v5.2h-1.6V73h1.6l3.2,5.2V73h1.6V80.9z"/>
	<path class="st1" d="M47.3,74.3h-2.4v6.6h-1.6v-6.6h-2.4V73h6.4V74.3z"/>
	<path class="st1" d="M52.1,79.3h-2.9l-0.5,1.6h-1.7l2.9-7.9h1.5l3,7.9h-1.7L52.1,79.3z M49.7,78h2l-1-3L49.7,78z"/>
	<path class="st1" d="M58,78h-1.3v2.9h-1.6V73H58c0.9,0,1.7,0.2,2.2,0.6c0.5,0.4,0.8,1,0.8,1.8c0,0.5-0.1,1-0.3,1.3
		c-0.2,0.4-0.6,0.6-1.1,0.9l1.7,3.2v0.1h-1.7L58,78z M56.7,76.7H58c0.4,0,0.7-0.1,0.9-0.3c0.2-0.2,0.3-0.5,0.3-0.9
		c0-0.4-0.1-0.7-0.3-0.9c-0.2-0.2-0.5-0.3-1-0.3h-1.3V76.7z"/>
	<path class="st1" d="M65.3,73H67v5.5c0,0.5-0.1,0.9-0.3,1.3c-0.2,0.4-0.5,0.7-0.9,0.9c-0.4,0.2-0.9,0.3-1.4,0.3
		c-0.8,0-1.5-0.2-2-0.6c-0.5-0.4-0.7-1-0.7-1.8h1.6c0,0.4,0.1,0.7,0.2,0.9c0.2,0.2,0.4,0.3,0.8,0.3c0.3,0,0.6-0.1,0.7-0.3
		s0.3-0.5,0.3-0.9V73z"/>
	<path class="st1" d="M73.1,77.5H70v2.1h3.7v1.3h-5.3V73h5.3v1.3H70v1.9h3.1V77.5z"/>
	<path class="st1" d="M80.7,74.3h-2.4v6.6h-1.6v-6.6h-2.4V73h6.4V74.3z"/>
	<path class="st1" d="M85.4,79.3h-2.9L82,80.9h-1.7l2.9-7.9h1.5l3,7.9h-1.7L85.4,79.3z M83,78h2l-1-3L83,78z"/>
	<path class="st1" d="M92.5,78.8c0-0.3-0.1-0.5-0.3-0.7c-0.2-0.2-0.6-0.3-1.2-0.5s-1-0.4-1.3-0.5c-0.9-0.5-1.3-1.1-1.3-2
		c0-0.4,0.1-0.8,0.4-1.1s0.6-0.6,1-0.8c0.5-0.2,1-0.3,1.5-0.3c0.6,0,1.1,0.1,1.5,0.3c0.4,0.2,0.8,0.5,1,0.9s0.4,0.8,0.4,1.3h-1.6
		c0-0.4-0.1-0.6-0.3-0.8c-0.2-0.2-0.5-0.3-1-0.3c-0.4,0-0.7,0.1-0.9,0.3c-0.2,0.2-0.3,0.4-0.3,0.7c0,0.3,0.1,0.5,0.4,0.6
		c0.3,0.2,0.6,0.3,1.1,0.5c0.9,0.3,1.6,0.6,2,1c0.4,0.4,0.6,0.9,0.6,1.5c0,0.7-0.3,1.2-0.8,1.6c-0.5,0.4-1.2,0.6-2.1,0.6
		c-0.6,0-1.2-0.1-1.7-0.3c-0.5-0.2-0.9-0.5-1.1-0.9c-0.3-0.4-0.4-0.8-0.4-1.3h1.6c0,0.9,0.5,1.3,1.6,1.3c0.4,0,0.7-0.1,0.9-0.2
		S92.5,79.1,92.5,78.8z"/>
	<path class="st1" d="M16.2,89.1v2.8h-1.6V84h3.1c0.6,0,1.1,0.1,1.6,0.3s0.8,0.5,1,0.9c0.2,0.4,0.4,0.9,0.4,1.4
		c0,0.8-0.3,1.4-0.8,1.8c-0.5,0.4-1.3,0.7-2.2,0.7H16.2z M16.2,87.8h1.5c0.4,0,0.8-0.1,1-0.3c0.2-0.2,0.3-0.5,0.3-0.9
		c0-0.4-0.1-0.7-0.3-0.9s-0.5-0.4-0.9-0.4h-1.5V87.8z"/>
	<path class="st1" d="M25.2,90.3h-2.9l-0.5,1.6h-1.7L23,84h1.5l3,7.9h-1.7L25.2,90.3z M22.8,89h2l-1-3L22.8,89z"/>
	<path class="st1" d="M31.1,89h-1.3v2.9h-1.6V84h2.9c0.9,0,1.7,0.2,2.2,0.6c0.5,0.4,0.8,1,0.8,1.8c0,0.5-0.1,1-0.3,1.3
		c-0.2,0.4-0.6,0.6-1.1,0.9l1.7,3.2v0.1h-1.7L31.1,89z M29.8,87.7h1.3c0.4,0,0.7-0.1,0.9-0.3c0.2-0.2,0.3-0.5,0.3-0.9
		c0-0.4-0.1-0.7-0.3-0.9c-0.2-0.2-0.5-0.3-1-0.3h-1.3V87.7z"/>
	<path class="st1" d="M40.9,85.3h-2.4v6.6h-1.6v-6.6h-2.4V84h6.4V85.3z"/>
	<path class="st1" d="M43.6,91.9H42V84h1.6V91.9z"/>
	<path class="st1" d="M51.3,89.3c-0.1,0.8-0.4,1.5-0.9,2C49.8,91.8,49,92,48.1,92c-1,0-1.8-0.3-2.4-1c-0.6-0.7-0.9-1.6-0.9-2.8v-0.5
		c0-0.8,0.1-1.4,0.4-2s0.6-1,1.1-1.3c0.5-0.3,1.1-0.5,1.7-0.5c0.9,0,1.6,0.2,2.2,0.7c0.6,0.5,0.9,1.2,1,2.1h-1.6
		c0-0.5-0.2-0.9-0.4-1.1c-0.2-0.2-0.6-0.3-1.1-0.3c-0.5,0-0.9,0.2-1.2,0.6s-0.4,1-0.4,1.8v0.6c0,0.9,0.1,1.5,0.4,1.9
		c0.3,0.4,0.7,0.6,1.2,0.6c0.5,0,0.9-0.1,1.1-0.3s0.4-0.6,0.4-1.1H51.3z"/>
	<path class="st1" d="M54.1,91.9h-1.6V84h1.6V91.9z"/>
	<path class="st1" d="M57.2,89.1v2.8h-1.6V84h3.1c0.6,0,1.1,0.1,1.6,0.3c0.5,0.2,0.8,0.5,1,0.9c0.2,0.4,0.4,0.9,0.4,1.4
		c0,0.8-0.3,1.4-0.8,1.8c-0.5,0.4-1.3,0.7-2.2,0.7H57.2z M57.2,87.8h1.5c0.4,0,0.8-0.1,1-0.3c0.2-0.2,0.3-0.5,0.3-0.9
		c0-0.4-0.1-0.7-0.3-0.9s-0.5-0.4-0.9-0.4h-1.5V87.8z"/>
	<path class="st1" d="M66.3,90.3h-2.9l-0.5,1.6h-1.7l2.9-7.9h1.5l3,7.9h-1.7L66.3,90.3z M63.8,89h2l-1-3L63.8,89z"/>
	<path class="st1" d="M75.7,91.9h-1.6l-3.2-5.2v5.2h-1.6V84h1.6l3.2,5.2V84h1.6V91.9z"/>
	<path class="st1" d="M82.9,85.3h-2.4v6.6h-1.6v-6.6h-2.4V84h6.4V85.3z"/>
	<path class="st1" d="M88.6,88.5h-3.1v2.1h3.7v1.3h-5.3V84h5.3v1.3h-3.7v1.9h3.1V88.5z"/>
	<path class="st1" d="M94.2,89.8c0-0.3-0.1-0.5-0.3-0.7c-0.2-0.2-0.6-0.3-1.2-0.5s-1-0.4-1.3-0.5c-0.9-0.5-1.3-1.1-1.3-2
		c0-0.4,0.1-0.8,0.4-1.1c0.2-0.3,0.6-0.6,1-0.8c0.4-0.2,1-0.3,1.5-0.3c0.6,0,1.1,0.1,1.5,0.3c0.4,0.2,0.8,0.5,1,0.9
		c0.2,0.4,0.4,0.8,0.4,1.3h-1.6c0-0.4-0.1-0.6-0.3-0.8c-0.2-0.2-0.5-0.3-1-0.3c-0.4,0-0.7,0.1-0.9,0.3s-0.3,0.4-0.3,0.7
		c0,0.3,0.1,0.5,0.4,0.6c0.3,0.2,0.6,0.3,1.1,0.5c0.9,0.3,1.6,0.6,2,1c0.4,0.4,0.6,0.9,0.6,1.5c0,0.7-0.3,1.2-0.8,1.6
		c-0.5,0.4-1.2,0.6-2.1,0.6c-0.6,0-1.2-0.1-1.7-0.3c-0.5-0.2-0.9-0.5-1.1-0.9c-0.3-0.4-0.4-0.8-0.4-1.3h1.6c0,0.9,0.5,1.3,1.6,1.3
		c0.4,0,0.7-0.1,0.9-0.2S94.2,90.1,94.2,89.8z"/>
</g>
<g class="st0">
	<path class="st1" d="M21.7,46h-1.6v-3.4h-3.2V46h-1.6v-7.9h1.6v3.2h3.2v-3.2h1.6V46z"/>
	<path class="st1" d="M27.7,44.4h-2.9L24.3,46h-1.7l2.9-7.9H27l3,7.9h-1.7L27.7,44.4z M25.3,43.1h2l-1-3L25.3,43.1z"/>
	<path class="st1" d="M34.8,43.9c0-0.3-0.1-0.5-0.3-0.7c-0.2-0.2-0.6-0.3-1.2-0.5s-1-0.4-1.3-0.5c-0.9-0.5-1.3-1.1-1.3-2
		c0-0.4,0.1-0.8,0.4-1.1c0.2-0.3,0.6-0.6,1-0.8c0.4-0.2,1-0.3,1.5-0.3c0.6,0,1.1,0.1,1.5,0.3s0.8,0.5,1,0.9c0.2,0.4,0.4,0.8,0.4,1.3
		h-1.6c0-0.4-0.1-0.6-0.3-0.8c-0.2-0.2-0.5-0.3-1-0.3c-0.4,0-0.7,0.1-0.9,0.3c-0.2,0.2-0.3,0.4-0.3,0.7c0,0.3,0.1,0.5,0.4,0.6
		s0.6,0.3,1.1,0.5c0.9,0.3,1.6,0.6,2,1c0.4,0.4,0.6,0.9,0.6,1.5c0,0.7-0.3,1.2-0.8,1.6c-0.5,0.4-1.2,0.6-2.1,0.6
		c-0.6,0-1.2-0.1-1.7-0.3c-0.5-0.2-0.9-0.5-1.1-0.9c-0.3-0.4-0.4-0.8-0.4-1.3H32c0,0.9,0.5,1.3,1.6,1.3c0.4,0,0.7-0.1,0.9-0.2
		S34.8,44.2,34.8,43.9z"/>
	<path class="st1" d="M43.5,39.4h-2.4V46h-1.6v-6.6H37v-1.3h6.4V39.4z"/>
	<path class="st1" d="M48.2,44.4h-2.9L44.8,46h-1.7l2.9-7.9h1.5l3,7.9h-1.7L48.2,44.4z M45.8,43.1h2l-1-3L45.8,43.1z"/>
</g>
<g>
	<path class="st2" d="M71,45h20.6c1.4,0,2.6-1.2,2.6-2.7V21.8c0-1.4-1.1-2.7-2.6-2.7h-33c-1.4,0-2.8,1.1-2.8,2.7v20.6
		c0,1.4,1.2,2.7,2.8,2.7h16"/>
	<line class="st2" x1="55.8" y1="23.6" x2="94.2" y2="23.6"/>
	<line class="st2" x1="55.8" y1="28.9" x2="94.2" y2="28.9"/>
	<line class="st2" x1="58.4" y1="32.5" x2="63.8" y2="32.5"/>
	<line class="st2" x1="65.6" y1="32.5" x2="71" y2="32.5"/>
</g>
</svg>
