<?xml version="1.0" encoding="utf-8"?>
<!-- Generator: Adobe Illustrator 16.0.4, SVG Export Plug-In . SVG Version: 6.00 Build 0)  -->
<!DOCTYPE svg PUBLIC "-//W3C//DTD SVG 1.1//EN" "http://www.w3.org/Graphics/SVG/1.1/DTD/svg11.dtd">
<svg version="1.1" id="Capa_1" xmlns="http://www.w3.org/2000/svg" xmlns:xlink="http://www.w3.org/1999/xlink" x="0px" y="0px"
	 width="150px" height="110px" viewBox="0 0 150 110" enable-background="new 0 0 150 110" xml:space="preserve">
<g>
	<path fill="#FFFFFF" d="M16.096,55.923c-0.217-0.603,0.089-1.1,0.464-1.412c1.682-1.401,3.229-2.322,4.49-3.202
		c3.738-2.603,5.081-4.83,2.219-15.923c-2.386-9.243-13.195,5.635-16.505-2.624C5.247,28.978,9.89,14.58,13.805,11.571
		c0.477-0.256,1.003-0.6,1.482-0.842c2.669-1.349,5.75-1.964,7.226,0.213c0,0-0.025,0.21-0.011,0.27
		c-3.824,2.108-9.374,11.746-8.114,15.699c0.325,1.02,15.247-2.168,17.09,7.4c1.388,7.207-0.828,15.932-6.904,19.866
		c-4.036,2.612-4.232,2.185-8.391,1.985C16.148,56.066,16.131,56.019,16.096,55.923"/>
	<path fill="#FFFFFF" d="M33.443,30.107c-1.262-7.352-0.895-14.892-2.13-22.257c-0.112-0.659-0.281-1.242-0.391-1.9
		c0.137-0.376,0.207-0.564,0.347-0.939c0,0,0.691-0.197,0.972-0.25c2.106-0.392,4.968-0.077,6.493,1.403
		c0.089,0.762,0.135,1.142,0.224,1.904c0.883,7.502-0.208,15.064,0.749,22.611c0.092,0.718,0.14,1.567,0.239,2.347
		c0.22,1.738,0.645,3.299,1.777,3.094c2.494-2.41,4.314-6.485,4.746-9.773c0.91-7.954,2.217-15.987,3.911-23.81
		c-0.003-0.06,0.583-0.079,0.877-0.056c2.941,0.218,5.612,1.895,5.616,4.063c0.001,0.479,0.002,0.719,0.002,1.197
		c-1.253,5.324-1.821,8.025-2.846,13.495c-1.736,3.938-1.935,9.081-1.885,13.438c-0.062-0.113-0.663-0.39-0.841-0.386
		c-3.063,0.095-3.181,6.089-7.013,6.731c-4.27,0.716-8.01-1.877-9.923-5.866C34.243,34.431,33.588,30.95,33.443,30.107"/>
	<path fill="#FFFFFF" d="M60.988,10.523c-0.044-2.02-0.645-4.927-0.604-6.053c0.24-1.236,4.832-0.641,8.443,0.255
		c1.578,0.393,3.019,0.827,3.735,1.07c7.047,2.355,11.881,6.188,11.171,9.945c-0.05,0.267-0.103,0.536-0.215,0.785
		c-1.207,3.218-6.143,5.486-11.582,6.13c-2.289,0.26-3.571-0.116-5.666,0.053c-0.189,0.931-1.257,5.234-1.492,6.162
		c-0.336,1.588-0.932,3.496-1.291,5.368c-0.436,2.272-0.505,5.674-2.364,5.488c-0.619-0.063-3.246-2.14-4.431-3.198
		C57.818,27.837,59.251,19.115,60.988,10.523 M67.155,15.343c-0.058,0.714-0.06,1.537-0.018,2.513
		c0.123,0.026,0.183,0.039,0.304,0.065c3.934,0.848,10.043-3.771,10.597-5.232c0.13-0.869,0.148-0.936-2.861-2.412
		c-0.829-0.282-1.854-0.613-2.882-0.886c-1.543-0.409-3.031-0.681-3.713-0.36C67.996,11.547,67.71,12.809,67.155,15.343"/>
	<path fill="#FFFFFF" d="M82.199,33.685c0.083-0.239,0.27-1.511,0.335-1.818c0.306-1.42,0.968-2.479,1.263-3.819
		c0.185-0.845,0.451-2.012,0.24-2.882c-0.222-0.928-1.881-1.19-1.675-2.198c1.11,0.361,2.194,0.061,3.08-0.299
		c0.887-2.519,1.34-3.775,2.262-6.28c0.134-0.567,0.198-0.849,0.331-1.416c-0.721-0.549-2.096-0.909-1.927-1.682
		c0.153-0.694,0.112-0.251,1.068-0.411c6.423-1.036,9.79,0.259,17.384,3.26c1.418,0.559,2.846,1.25,2.92,2.104
		c-0.013,0.037-0.562,0.315-0.63,0.328c-0.11,0.125-0.627,0.496-0.666,0.605c-4.105-0.98-6.162-1.474-10.255-2.393
		c-1.835-0.537-2.731,1.158-3.229,2.992c-0.358,1.31-0.505,2.734-0.679,3.371c2.311,0.846,4.561,0.919,6.812,1.784
		c0.911,0.351,3.658,1.705,3.382,2.496c-0.199,0.574-1.299,0.636-2.017,0.645c-1.36-0.2-7.795-1.226-9.241-1.418
		c-0.327,0.013-0.491,0.021-0.816,0.035c-1.011,1.442-1.533,3.059-1.963,4.746c-0.288,1.123-0.514,2.224-0.799,3.347
		c0.1,0.034,0.148,0.049,0.247,0.083c0.812-0.213,4.89-0.852,5.744-0.905c0.224,0,0.958-0.222,2.289-0.132
		c0.839,0.027,1.003,0.047,1.662,0.295c1.115,0.419,2.584,0.979,3.239,1.876c-2.263,1.231-8.396,2.271-11.317,2.851
		c-0.683,0.172-3.029,0.23-3.837,0.23c-1.805-0.233-3.247-1.326-3.564-2.236C81.843,36.843,81.39,36.031,82.199,33.685"/>
	<path fill="#FFFFFF" d="M104.359,38.083c0.028-0.094,0.157-0.367,0.157-0.367c0.076-0.253,0.864-1.912,0.93-2.133
		c2.039-4.495,3.312-7.686,4.037-10.008c1.849-5.917,0.059-5.902,0.253-6.543c0.282-0.931,6.869,0.107,7.914,0.428
		c2.531,0.778,8.912,3.416,7.802,6.137c-0.78,1.907-4.068,3.52-6.34,4.569c-0.258,0.131-0.386,0.196-0.642,0.326
		c-1.591,0.699-2.379,1.047-3.935,1.746c0.144,0.598,1.209,3.332,1.439,3.917c0.211,0.374,1.861,3.402,2.014,3.756
		c0.543,0.981,0.992,2.373,0.571,3.401c-0.214-0.062-0.743-0.185-1.3-0.351c-1.162-0.345-2.68-0.9-2.929-1.519
		c-3.424-6.032-3.59-8.187-3.681-8.216c-0.862,3.122-1.293,4.674-2.155,7.764c-0.021,0.062-0.645,0.218-0.857,0.292
		c-0.05-0.015-0.076-0.023-0.127-0.038c-1.081-0.321-2.608-2.106-3.212-2.8C104.317,38.379,104.341,38.146,104.359,38.083
		 M116.111,23.055c-0.071,0.048-1.396,2.47-1.896,3.464c-0.171,0.491-0.255,0.735-0.424,1.227c0.149-0.066,0.222-0.098,0.37-0.164
		c0.822-0.409,3.164-1.78,3.413-1.88c0.646-0.465,2.267-1.652,2.301-1.745c0.043-0.114,0.064-0.171,0.106-0.285
		c-1.238-0.372-1.861-0.561-3.107-0.944C116.568,22.86,116.416,22.924,116.111,23.055"/>
	<path fill="#FFFFFF" d="M7.717,61.364c0.672-0.691,1.011-1.031,1.691-1.695c2.786-2.723,10.421-8.271,12.563-5.116
		c0.505,0.743,1.173,1.742,1.223,2.712c0.272,4.931,0.482,7.402,1.039,12.36c0.218,0.313,0.367,0.389,0.91,0.359
		c0.864-0.656,5.19-3.067,6.059-3.513c-0.104-0.026,5.694-0.713,5.958-0.23c0.375,0.266,0.561,0.401,0.934,0.671
		c0.537,0.998,0.804,1.497,1.338,2.502c4.759,10.284,5.505,22.586,4.809,33.785c-0.068,2.094-0.072,3.77-0.952,4.502
		c-1.541,1.281-3.744,2.768-5.982,2.156c-0.354-0.236-0.534-0.354-0.889-0.586c-1.126-1.144-5.314-5.146-5.923-5.761
		c-1.24-1.435-1.866-2.139-3.125-3.521c-0.143-0.188-1.341-1.852-1.485-2.037C18.996,89.528,11.261,81.661,2.98,74.742
		C1.326,73.359,0.578,74.321,0,73.867C1.197,69.184,4.421,64.753,7.717,61.364 M16.427,75.179c1.258-3.925-0.05-9.349-0.867-13.188
		c-0.096-0.457-0.145-0.688-0.238-1.146c-0.073-0.092-0.109-0.136-0.183-0.229c-0.545-0.682-2.688,1.251-3.483,2.012
		c-0.661,0.636-1.16,1.327-1.572,2.247c0.813,2.81,2.121,6.07,4.038,8.265C15.051,73.938,15.512,74.346,16.427,75.179
		 M33.995,98.143c0.99,1.143,3.601,4.399,3.737,4.39c0.251,0.079,0.377,0.12,0.627,0.202c0.02-0.87,0.033-1.305,0.066-2.172
		c0.041-1.084-1.028-11.622-1.577-15.12c-0.358-2.661-2.263-11.036-2.703-11.78c-0.738-1.358-1.107-2.033-1.849-3.374
		c-2.097,1.323-9.656,11.144-9.077,12.896c0.278,0.364,1.739,2.557,2.153,3.115c0.073,0.101,0.11,0.15,0.184,0.251
		C28.989,91.009,30.677,93.338,33.995,98.143"/>
	<path fill="#FFFFFF" d="M49.592,74.49c-0.039,0.253-0.059,0.377-0.095,0.63c1.268,4.78,1.926,7.188,3.283,12.036
		c0.124,0.407-0.18,0.615-0.417,0.72c-0.151,0.067-0.227,0.101-0.378,0.17c-1.179,0.53-4.469,0.286-5.252-1.306
		c-0.101-0.201-0.151-0.305-0.25-0.508C42.865,73.37,39.388,60.48,36.083,47.535c-0.157-0.156-0.218-0.277-0.278-0.398
		c-0.605-1.208,0.125-2.635,1.283-3.031c3.404-1.172,8.076,0.594,10.221,3.525c7.728,11.157,14.855,22.475,21.464,34.331
		c-0.418,0.071-0.627,0.11-1.043,0.185c-1.146,0.213-1.486,0.354-2.156,0.498c-0.206,0.044-0.309,0.065-0.515,0.109
		c-0.514,0.113-1.017,0.093-1.458-0.709c-2.651-4.692-4.036-7.033-6.929-11.673c-0.158,0.038-0.237,0.058-0.395,0.095
		C54.162,71.535,49.592,74.49,49.592,74.49 M48.352,66.232c1.38-0.441,2.537-1.413,3.801-2.152c-0.112-0.279-0.168-0.42-0.28-0.699
		c-0.127-0.318-5.168-8.453-6.949-8.776c-0.012,0.425-0.018,0.638-0.027,1.066c0.726,3.77,1.11,5.665,1.921,9.477
		c0.029,0.062,0.111,0.397,0.166,0.523C47.319,66.429,47.775,66.418,48.352,66.232"/>
	<path fill="#FFFFFF" d="M68.993,78.157c-0.047-0.169-0.146-0.686-0.146-0.686c-0.129-0.454-0.724-3.604-0.838-3.999
		c-1.694-8.449-3.047-14.233-4.239-18.327c-3.039-10.427-4.843-9.356-5.195-10.475c-0.511-1.622,7.125-3.34,8.496-3.283
		c3.331,0.136,12.507,2.251,13.268,6.881c0.535,3.246-1.868,6.896-3.431,9.498c-0.17,0.313-0.252,0.471-0.42,0.786
		c-1.107,1.78-1.634,2.695-2.625,4.565c0.585,0.882,3.623,4.724,4.264,5.545c0.472,0.494,4.179,4.529,4.569,5.018
		c1.191,1.303,2.546,3.291,2.816,5.099c-0.247-0.002-0.832,0.049-1.468,0.053c-1.325,0.004-3.105-0.114-3.764-0.972
		c-7.318-7.839-9.271-11.173-9.377-11.167c1.573,5.45,2.336,8.178,3.82,13.626c0.028,0.112-0.401,0.727-0.533,0.97
		c-0.056,0.007-0.083,0.011-0.139,0.017c-1.164,0.126-3.793-1.797-4.834-2.53C69.185,78.66,69.025,78.271,68.993,78.157
		 M68.348,47.769c-0.034,0.108,0.532,4.573,0.812,6.399c0.217,0.862,0.325,1.296,0.541,2.159c0.094-0.178,0.142-0.266,0.239-0.442
		c0.499-1.05,1.821-4.294,2.003-4.56c0.311-1.019,1.105-3.559,1.07-3.722c-0.043-0.196-0.064-0.294-0.106-0.49
		c-1.616-0.109-2.421-0.15-4.027-0.204C68.666,47.251,68.56,47.424,68.348,47.769"/>
	<path fill="#FFFFFF" d="M93.924,68.539c-0.136,0.164-0.201,0.247-0.336,0.412c-0.541,3.924-0.78,5.907-1.201,9.908
		c-0.028,0.34-0.417,0.374-0.698,0.359c-0.181-0.011-0.271-0.016-0.45-0.025c-1.407-0.078-4.667-1.607-4.857-3.074
		c-0.025-0.188-0.037-0.283-0.063-0.468c1.135-10.882,2.69-21.324,4.817-32.056c-0.087-0.181-0.099-0.295-0.106-0.41
		c-0.096-1.133,1.177-1.794,2.449-1.556c3.743,0.702,7.615,3.753,8.584,6.651c3.544,10.376,6.505,20.913,8.803,31.636
		c-0.461-0.041-0.691-0.06-1.153-0.101c-1.268-0.11-1.673-0.094-2.42-0.159c-0.231-0.021-0.346-0.033-0.576-0.052
		c-0.576-0.05-1.09-0.203-1.252-0.918c-1.015-4.212-1.569-6.343-2.77-10.653c-0.176-0.021-0.263-0.031-0.438-0.055
		C99.69,68.09,93.924,68.539,93.924,68.539 M95.841,62.125c1.56,0.209,3.1-0.073,4.661-0.178c-0.005-0.241-0.008-0.361-0.012-0.603
		c-0.006-0.276-1.901-7.979-3.536-8.911c-0.181,0.3-0.271,0.452-0.448,0.755c-0.76,2.993-1.117,4.505-1.779,7.56
		c0.002,0.056-0.046,0.328-0.039,0.44C94.732,61.864,95.192,62.037,95.841,62.125"/>
	<path fill="#FFFFFF" d="M114.665,73.338c0.068-0.777,0.103-1.167,0.17-1.945c0.14-1.598,0.336-3.139,0.464-4.587
		c0.487-5.542,2.241-10.904,2.79-16.432c-2.415-0.367-3.602,1.476-5.789,1.117c-1.3-0.213-5.11-2.254-5.087-3.337
		c0.018-0.826,1.222-1.076,2.015-1.398c8.313-2.074,14.167-1.038,23.604-1.064c1.03-0.005,1.544-0.011,2.57-0.032
		c1.818,0.134,4.696,1.244,4.355,2.641c-0.482,1.977-9.585,1.332-10.922,1.391c-1.265,0.056-2.206,0.197-2.83,1.067
		c-0.782,1.895-3.618,10.912-4.021,12.905c-0.026,0.196-0.543,3.517-0.717,4.788c-0.559,4.108-0.363,8.171-0.925,12.162
		c-0.049,0.351-0.073,0.525-0.121,0.875c-0.281,0.123-0.423,0.184-0.703,0.304c-0.086-0.006-0.129-0.008-0.216-0.014
		c-1.47-0.088-2.509-1.101-3.799-1.495C114.291,79.646,114.443,75.885,114.665,73.338"/>
	<path fill="#FFFFFF" d="M134.282,74.564c-0.193,0.159-0.289,0.237-0.484,0.396c-1.763,3.599-2.617,5.39-4.269,8.976
		c-0.133,0.306-0.559,0.337-0.854,0.32c-0.189-0.009-0.285-0.014-0.476-0.024c-1.483-0.079-4.527-1.56-4.286-2.859
		c0.032-0.166,0.047-0.249,0.079-0.415c4.524-9.993,9.633-19.665,15.143-29.147c-0.033-0.16-0.007-0.265,0.019-0.37
		c0.266-1.045,1.804-1.821,3.05-1.789c3.661,0.098,6.653,2.167,6.744,4.762c0.403,9.589,0.242,19.165-0.44,28.739
		c-0.457,0.045-0.685,0.067-1.145,0.109c-1.26,0.112-1.683,0.188-2.432,0.238c-0.23,0.017-0.346,0.023-0.577,0.038
		c-0.578,0.035-1.064-0.039-1.024-0.69c0.169-3.823,0.224-5.754,0.27-9.647c-0.177,0.004-0.264,0.007-0.438,0.012
		C140.477,73.687,134.282,74.564,134.282,74.564 M138.258,68.522c1.567,0.041,3.254-0.41,4.902-0.742
		c0.067-0.228,0.102-0.343,0.17-0.57c0.076-0.26,0.482-7.245-0.924-7.883c-0.279,0.311-0.419,0.465-0.698,0.774
		c-1.72,2.924-2.561,4.37-4.198,7.255c-0.013,0.051-0.147,0.308-0.174,0.409C137.174,68.385,137.605,68.505,138.258,68.522"/>
	<path fill="#FFFFFF" d="M46.112,1.333C45.55,0.945,44.99,0.554,44.432,0.16c-0.561-0.396-1.265,0.016-1.59,0.481
		c-1.613,2.303-1.288,5.845-0.502,8.386c0.292,0.949,1.357,0.967,1.929,0.459c0.293-0.195,0.518-0.508,0.553-0.939
		c0.165-2.008,0.787-3.874,1.773-5.625C46.932,2.325,46.626,1.687,46.112,1.333"/>
	<path fill="#FFFFFF" d="M48.376,104.301c13.433-9.148,28.158-13.104,43.385-13.315c14.634-0.204,30.967,2.343,45.783,1.2
		c1.152-0.09,2.476-2.586,1.15-2.879c-29.617-6.513-61.468-10.818-88.849,2.363c-1.248,0.602-0.031,3.176,1.276,2.607
		c27.016-11.721,57.788-7.537,86.146-2.159c0.381-0.954,0.764-1.911,1.146-2.872c-15.472,0.857-31.253-2.575-46.051-2.506
		c-15.896,0.076-31.437,5.342-45.256,14.977C45.952,102.522,47.205,105.117,48.376,104.301"/>
</g>
</svg>
