<?xml version="1.0" encoding="utf-8"?>
<!-- Generator: Adobe Illustrator 19.2.1, SVG Export Plug-In . SVG Version: 6.00 Build 0)  -->
<svg version="1.1" id="Capa_1" xmlns="http://www.w3.org/2000/svg" xmlns:xlink="http://www.w3.org/1999/xlink" x="0px" y="0px"
	 viewBox="0 0 60 80" style="enable-background:new 0 0 60 80;" xml:space="preserve">
<style type="text/css">
	.st0{enable-background:new    ;}
	.st1{fill:#FFFFFF;}
	.st2{fill:none;stroke:#FFFFFF;stroke-width:2;stroke-miterlimit:10;}
</style>
<g class="st0">
	<path class="st1" d="M13.5,21.1l1.4-3h1.5l-2.2,4.3v2.4h-1.4v-2.4l-2.2-4.3h1.5L13.5,21.1z"/>
</g>
<g class="st0">
	<path class="st1" d="M24.9,24.8h-1.4v-2.9h-2.7v2.9h-1.4v-6.8h1.4v2.7h2.7v-2.7h1.4V24.8z"/>
</g>
<g class="st0">
	<path class="st1" d="M29.8,23.4h-2.4l-0.5,1.4h-1.5l2.5-6.8h1.3l2.5,6.8h-1.5L29.8,23.4z M27.8,22.3h1.7l-0.8-2.5L27.8,22.3z"/>
	<path class="st1" d="M35.9,23c0-0.3-0.1-0.5-0.3-0.6s-0.5-0.3-1-0.4s-0.9-0.3-1.1-0.5c-0.8-0.4-1.2-1-1.2-1.7c0-0.4,0.1-0.7,0.3-1
		c0.2-0.3,0.5-0.5,0.9-0.7c0.4-0.2,0.8-0.2,1.3-0.2c0.5,0,0.9,0.1,1.3,0.3c0.4,0.2,0.7,0.4,0.9,0.7c0.2,0.3,0.3,0.7,0.3,1.1h-1.4
		c0-0.3-0.1-0.5-0.3-0.7c-0.2-0.2-0.5-0.3-0.8-0.3c-0.3,0-0.6,0.1-0.8,0.2c-0.2,0.1-0.3,0.3-0.3,0.6c0,0.2,0.1,0.4,0.3,0.6
		s0.5,0.3,1,0.4c0.8,0.2,1.4,0.5,1.7,0.9c0.4,0.4,0.5,0.8,0.5,1.3c0,0.6-0.2,1-0.7,1.4c-0.4,0.3-1,0.5-1.8,0.5c-0.5,0-1-0.1-1.4-0.3
		s-0.8-0.5-1-0.8c-0.2-0.3-0.3-0.7-0.3-1.2h1.4c0,0.7,0.4,1.1,1.3,1.1c0.3,0,0.6-0.1,0.8-0.2C35.8,23.5,35.9,23.3,35.9,23z"/>
</g>
<g class="st0">
	<path class="st1" d="M43,19.2h-2.1v5.6h-1.4v-5.6h-2v-1.1H43V19.2z"/>
</g>
<g class="st0">
	<path class="st1" d="M46.8,23.4h-2.4l-0.5,1.4h-1.5l2.5-6.8h1.3l2.5,6.8h-1.5L46.8,23.4z M44.8,22.3h1.7l-0.8-2.5L44.8,22.3z"/>
</g>
<g class="st0">
	<path class="st1" d="M15.9,35.8H14v-7.4l-2.3,0.7v-1.5l4-1.4h0.2V35.8z"/>
	<path class="st1" d="M24.3,28.8c0,0.5-0.1,0.9-0.3,1.2s-0.6,0.6-1,0.9c0.5,0.2,0.8,0.5,1.1,0.9c0.3,0.4,0.4,0.9,0.4,1.4
		c0,0.9-0.3,1.5-0.9,2c-0.6,0.5-1.4,0.7-2.4,0.7s-1.8-0.2-2.4-0.7c-0.6-0.5-0.9-1.2-0.9-2c0-0.5,0.1-1,0.4-1.4
		c0.3-0.4,0.6-0.7,1.1-0.9c-0.4-0.2-0.7-0.5-1-0.9c-0.2-0.4-0.3-0.8-0.3-1.2c0-0.8,0.3-1.5,0.8-2s1.3-0.7,2.2-0.7
		c0.9,0,1.7,0.2,2.2,0.7C24,27.3,24.3,27.9,24.3,28.8z M22.6,33c0-0.4-0.1-0.8-0.4-1s-0.6-0.4-1-0.4c-0.4,0-0.7,0.1-1,0.4
		c-0.2,0.2-0.4,0.6-0.4,1c0,0.4,0.1,0.7,0.4,1c0.2,0.2,0.6,0.4,1,0.4c0.4,0,0.7-0.1,1-0.4C22.4,33.8,22.6,33.5,22.6,33z M22.4,28.9
		c0-0.4-0.1-0.7-0.3-0.9c-0.2-0.2-0.5-0.3-0.8-0.3c-0.4,0-0.6,0.1-0.8,0.3c-0.2,0.2-0.3,0.5-0.3,0.9c0,0.4,0.1,0.7,0.3,0.9
		c0.2,0.2,0.5,0.3,0.8,0.3s0.6-0.1,0.8-0.3C22.3,29.6,22.4,29.2,22.4,28.9z"/>
</g>
<g class="st0">
	<path class="st1" d="M29.1,26.2l2.5,7l2.5-7h2.6v9.6h-2v-2.6l0.2-4.5l-2.6,7.2h-1.4l-2.6-7.1l0.2,4.5v2.6h-2v-9.6H29.1z"/>
	<path class="st1" d="M43.3,33.3c0-0.4-0.1-0.7-0.4-0.9c-0.3-0.2-0.7-0.4-1.4-0.6c-0.7-0.2-1.2-0.4-1.6-0.7
		c-1.1-0.6-1.6-1.4-1.6-2.4c0-0.5,0.1-1,0.4-1.4c0.3-0.4,0.7-0.7,1.3-1c0.5-0.2,1.2-0.3,1.8-0.3c0.7,0,1.3,0.1,1.8,0.4
		c0.5,0.2,1,0.6,1.2,1.1c0.3,0.5,0.4,1,0.4,1.5h-2c0-0.4-0.1-0.8-0.4-1c-0.3-0.2-0.7-0.4-1.2-0.4c-0.5,0-0.9,0.1-1.1,0.3
		s-0.4,0.5-0.4,0.8c0,0.3,0.2,0.6,0.5,0.8c0.3,0.2,0.8,0.4,1.4,0.6c1.1,0.3,1.9,0.8,2.5,1.3c0.5,0.5,0.8,1.1,0.8,1.9
		c0,0.8-0.3,1.5-0.9,2c-0.6,0.5-1.5,0.7-2.5,0.7c-0.7,0-1.4-0.1-2-0.4s-1.1-0.6-1.4-1.1c-0.3-0.5-0.5-1-0.5-1.6h2
		c0,1.1,0.6,1.6,1.9,1.6c0.5,0,0.8-0.1,1.1-0.3C43.2,33.9,43.3,33.6,43.3,33.3z"/>
	<path class="st1" d="M48.8,35.8h-2v-9.6h2V35.8z"/>
</g>
<g>
	<g>
		<g>
			<line class="st2" x1="10.6" y1="44.8" x2="48" y2="44.8"/>
			<line class="st2" x1="10.6" y1="49.9" x2="48" y2="49.9"/>
			<line class="st2" x1="13.2" y1="53.4" x2="18.4" y2="53.4"/>
			<line class="st2" x1="20.2" y1="53.4" x2="25.4" y2="53.4"/>
			<g>
				<path class="st2" d="M48,62.7c0,1.7-1.3,2.9-2.9,2.9H13.5c-1.7,0-2.9-1.3-2.9-2.9V43.3c0-1.6,1.3-2.9,2.9-2.9h31.6
					c1.7,0,2.9,1.4,2.9,2.9V62.7z"/>
			</g>
		</g>
	</g>
</g>
</svg>
