<svg id="Capa_1" data-name="Capa 1" xmlns="http://www.w3.org/2000/svg" viewBox="0 0 145.67 74.3"><defs><style>.cls-1{fill:#fff;}</style></defs><title>martimx2</title><path class="cls-1" d="M89.49,7.24l6.13,22.48V29.64a4,4,0,0,1,.18,1.2,4,4,0,0,1-4,4H87L79.89,8.74l-2.82.92,5.23,19.67,0,0a4,4,0,0,1-3.79,5.5H74.35L67.28,8.65l-2.85.9,6.77,25.23H54.56a4,4,0,0,1-4-4.07,3.88,3.88,0,0,1,.08-0.76L56.83,6.72A4.06,4.06,0,0,1,60.66,4h13a2.53,2.53,0,0,1,2.53,2.53V6.61h0L85,4.32l0.11,0a3.56,3.56,0,0,1,4.41,2.92v0"/><path class="cls-1" d="M4.68,53a0.25,0.25,0,0,1,.26-0.26H7.22a0.37,0.37,0,0,1,.42.26l3,10h0.1l2.88-10A0.37,0.37,0,0,1,14,52.7h2.25a0.25,0.25,0,0,1,.26.26V70.24a0.25,0.25,0,0,1-.26.26h-2A0.25,0.25,0,0,1,14,70.24V59H13.82l-2.3,8.09a0.34,0.34,0,0,1-.34.26H10a0.34,0.34,0,0,1-.34-0.26L7.38,59H7.22V70.24A0.25,0.25,0,0,1,7,70.5h-2a0.25,0.25,0,0,1-.26-0.26V53Z"/><path class="cls-1" d="M29.9,53a0.31,0.31,0,0,1,.29-0.26h2.2a0.29,0.29,0,0,1,.29.26l3.77,17.28a0.2,0.2,0,0,1-.21.26H34a0.27,0.27,0,0,1-.29-0.26L33,66.65H29.48l-0.71,3.59a0.27,0.27,0,0,1-.29.26H26.26a0.2,0.2,0,0,1-.21-0.26ZM32.57,64.3l-1.26-6.62H31.24L29.93,64.3h2.65Z"/><path class="cls-1" d="M52.75,70.5a0.26,0.26,0,0,1-.29-0.18l-2.17-7.09H49a0.14,0.14,0,0,0-.16.16v6.86a0.25,0.25,0,0,1-.26.26H46.26A0.25,0.25,0,0,1,46,70.24V53a0.25,0.25,0,0,1,.26-0.26h3.59c3.17,0,5.08,1.39,5.08,5.29,0,2.33-.79,3.8-2.12,4.55l2.51,7.7a0.17,0.17,0,0,1-.13.26H52.75ZM52.12,58c0-2.09-.68-2.75-2.25-2.75H49a0.14,0.14,0,0,0-.16.16v5.18a0.14,0.14,0,0,0,.16.16h0.92c1.57,0,2.25-.63,2.25-2.75"/><path class="cls-1" d="M67.47,70.5a0.25,0.25,0,0,1-.26-0.26V55.4a0.14,0.14,0,0,0-.16-0.16H64.33A0.25,0.25,0,0,1,64.07,55V53a0.25,0.25,0,0,1,.26-0.26h8.56a0.25,0.25,0,0,1,.26.26v2a0.25,0.25,0,0,1-.26.26H70.17a0.14,0.14,0,0,0-.16.16V70.24a0.25,0.25,0,0,1-.26.26H67.47Z"/><rect class="cls-1" x="82.76" y="52.7" width="2.8" height="17.8" rx="0.26" ry="0.26"/><rect class="cls-1" x="95.99" y="67.38" width="2.75" height="3.11" rx="0.26" ry="0.26"/><path class="cls-1" d="M109.18,53a0.25,0.25,0,0,1,.26-0.26h2.28a0.37,0.37,0,0,1,.42.26l3,10h0.1l2.88-10a0.37,0.37,0,0,1,.42-0.26h2.25A0.25,0.25,0,0,1,121,53V70.24a0.25,0.25,0,0,1-.26.26h-2a0.25,0.25,0,0,1-.26-0.26V59h-0.16L116,67.07a0.34,0.34,0,0,1-.34.26h-1.15a0.34,0.34,0,0,1-.34-0.26L111.88,59h-0.16V70.24a0.25,0.25,0,0,1-.26.26h-2a0.25,0.25,0,0,1-.26-0.26V53Z"/><path class="cls-1" d="M137.89,70.5a0.3,0.3,0,0,1-.29-0.26l-2.07-5.65h-0.05l-2.07,5.65a0.31,0.31,0,0,1-.29.26h-2.3a0.19,0.19,0,0,1-.21-0.26l3.48-9L130.92,53a0.19,0.19,0,0,1,.21-0.26h2.3a0.3,0.3,0,0,1,.29.26L135.48,58h0.05L137.28,53a0.3,0.3,0,0,1,.29-0.26h2.3a0.19,0.19,0,0,1,.21.26l-3.19,8.25,3.51,9a0.19,0.19,0,0,1-.21.26h-2.3Z"/></svg>