<?xml version="1.0" standalone="no"?>
<!DOCTYPE svg PUBLIC "-//W3C//DTD SVG 20010904//EN"
 "http://www.w3.org/TR/2001/REC-SVG-20010904/DTD/svg10.dtd">
<svg version="1.0" xmlns="http://www.w3.org/2000/svg"
 width="344.000000pt" height="344.000000pt" viewBox="0 0 344.000000 344.000000"
 preserveAspectRatio="xMidYMid meet">
<metadata>
Created by potrace 1.11, written by Peter Selinger 2001-2013
</metadata>
<g transform="translate(0.000000,344.000000) scale(0.100000,-0.100000)"
fill="#000000" stroke="none">
<path d="M1339 3428 c-11 -8 -10 -9 3 -4 38 12 27 -16 -12 -31 -32 -13 -38
-18 -25 -23 15 -5 12 -9 -13 -19 -18 -8 -32 -18 -32 -23 0 -23 -42 -66 -69
-71 -50 -10 -115 -85 -171 -197 -28 -57 -58 -130 -66 -164 -7 -34 -20 -86 -27
-116 -11 -45 -11 -69 -1 -135 8 -44 11 -97 7 -117 -3 -21 -2 -38 3 -38 5 0 9
-36 9 -80 -1 -76 7 -102 18 -61 7 28 55 57 69 43 9 -9 7 -17 -9 -34 -32 -35
-43 -62 -44 -110 -2 -52 20 -99 60 -127 39 -28 59 -27 27 2 -14 12 -28 36 -31
52 l-6 30 15 -32 c8 -18 19 -33 24 -33 4 0 18 19 29 43 20 39 22 40 22 15 1
-17 7 -28 15 -28 8 0 17 -6 19 -12 4 -9 6 -8 6 2 1 9 -6 25 -14 37 -11 15 -13
34 -8 68 l6 47 23 -50 c13 -28 28 -54 35 -58 7 -4 9 -3 5 4 -3 5 -1 12 6 14 7
3 14 40 18 99 3 52 9 99 13 106 7 11 43 6 105 -17 27 -10 38 -10 57 0 15 8 39
10 64 6 l41 -6 0 75 c0 71 1 75 22 75 19 0 20 -1 6 -13 -12 -8 -18 -32 -20
-77 -2 -36 -6 -72 -8 -80 -3 -9 3 -15 17 -16 13 -1 31 -7 40 -15 15 -11 15
-10 -1 9 -11 12 -17 24 -15 27 3 2 13 -9 24 -25 17 -25 53 -42 95 -43 13 0 71
10 158 29 17 3 22 0 22 -16 0 -37 17 -20 49 49 45 98 79 104 116 21 10 -22 23
-40 29 -40 6 0 34 -11 61 -24 50 -23 51 -23 85 -5 l35 19 -50 0 c-57 0 -121
16 -131 31 -4 8 -1 8 12 1 27 -13 107 -24 127 -16 9 3 17 14 17 24 0 19 16 35
35 35 6 0 11 10 13 23 4 27 7 27 42 2 38 -27 31 -63 -19 -84 -41 -17 -29 -22
15 -5 44 16 71 57 79 120 8 66 7 67 -98 76 -60 5 -67 4 -61 -11 5 -12 2 -15
-10 -10 -9 3 -16 10 -16 14 0 5 -6 10 -12 13 -7 2 -3 2 9 1 12 -2 25 1 29 7 4
7 21 9 45 5 44 -7 49 2 38 72 -3 23 -2 45 3 48 5 3 6 14 3 23 -3 10 -7 38 -10
62 -7 66 -14 94 -24 97 -5 2 -7 11 -4 21 3 11 -3 31 -12 45 -17 26 -17 27 1
41 17 13 17 14 2 15 -27 0 -30 18 -8 40 25 25 26 87 1 67 -12 -10 -13 -8 -8
15 4 15 3 30 -3 33 -7 4 -6 14 2 28 11 21 10 21 -7 7 -10 -8 -16 -10 -12 -4 9
16 -15 62 -35 68 -10 2 -18 10 -18 16 0 9 4 9 17 -1 14 -12 16 -12 11 1 -2 8
-20 20 -38 26 -19 6 -44 24 -56 39 l-22 27 6 -27 c3 -20 1 -26 -7 -21 -6 4
-11 14 -11 22 0 8 -4 14 -9 14 -5 0 -23 12 -40 26 -17 14 -31 22 -31 18 0 -4
-6 0 -12 9 -7 9 -28 20 -46 23 -28 6 -32 4 -26 -12 5 -18 5 -18 -9 -1 -16 19
-32 24 -21 6 4 -8 0 -8 -15 0 -27 15 -492 14 -512 -1z m481 -444 c58 -25 98
-26 127 -3 14 12 16 12 8 0 -6 -11 -2 -10 16 2 13 9 32 17 43 17 28 0 107 -30
130 -49 29 -25 62 -99 79 -176 8 -38 20 -85 25 -102 13 -41 9 -41 -26 -2 -25
28 -32 30 -102 32 -41 2 -100 -2 -130 -9 -30 -6 -62 -12 -70 -12 -8 1 -19 -1
-25 -2 -9 -3 -47 10 -87 31 -10 5 -31 9 -48 9 -68 0 -234 -51 -267 -81 -12
-12 -26 -18 -33 -14 -6 3 -9 2 -8 -3 2 -5 -12 -21 -29 -36 -47 -40 -42 -49 20
-41 81 11 45 -10 -50 -29 -107 -21 -203 -30 -183 -18 8 5 32 12 52 16 24 4 35
11 32 19 -2 7 16 34 40 60 52 54 69 104 67 194 -1 42 3 70 14 86 16 26 91 65
102 54 3 -4 12 -2 20 4 7 6 13 8 13 4 0 -4 7 -2 15 5 8 7 15 10 15 6 0 -3 24
9 53 28 80 52 90 52 187 10z m-165 -415 c-22 -4 -53 -8 -70 -7 -29 1 -29 1 5
8 19 4 51 7 70 8 l35 0 -40 -9z m338 -16 c-13 -2 -33 -2 -45 0 -13 2 -3 4 22
4 25 0 35 -2 23 -4z m257 -20 c0 -20 -3 -24 -11 -16 -7 7 -9 19 -6 27 10 24
17 19 17 -11z m48 6 c-20 -13 -38 -11 -38 5 0 9 8 12 26 8 19 -3 22 -7 12 -13z
m-98 -49 c0 -5 -10 -10 -22 -10 -19 0 -20 2 -8 10 19 13 30 13 30 0z m-350
-95 c-14 -16 -55 -21 -45 -5 3 6 15 10 26 10 10 0 19 5 19 12 0 6 3 8 6 5 4
-4 1 -13 -6 -22z m-163 -31 c-3 -3 -12 -4 -19 -1 -8 3 -5 6 6 6 11 1 17 -2 13
-5z"/>
<path d="M3393 3433 c9 -2 23 -2 30 0 6 3 -1 5 -18 5 -16 0 -22 -2 -12 -5z"/>
<path d="M3378 3375 c-6 -6 -192 -13 -445 -17 -101 -2 -183 -6 -183 -10 0 -5
8 -8 18 -8 9 0 165 -1 345 -2 318 -3 328 -2 325 16 -3 18 -47 34 -60 21z"/>
<path d="M3067 3313 c-249 -3 -288 -5 -285 -18 2 -13 43 -16 253 -21 138 -4
263 -6 279 -5 20 0 30 -5 33 -19 5 -18 21 -24 61 -23 6 1 12 -3 12 -9 0 -5 5
-6 10 -3 6 3 10 28 10 56 l0 49 -42 -2 c-24 -2 -173 -4 -331 -5z"/>
<path d="M0 2755 l0 -245 94 0 94 0 5 38 c3 20 4 129 3 242 l-1 205 -97 3 -98
3 0 -246z"/>
<path d="M0 2330 l0 -80 30 0 c23 0 30 -4 30 -20 0 -17 7 -20 50 -20 l50 0 0
100 0 100 -80 0 -80 0 0 -80z"/>
<path d="M2088 2303 c-2 -10 5 -33 15 -50 12 -22 17 -42 13 -61 -5 -22 1 -38
29 -77 19 -28 35 -56 35 -63 0 -10 3 -10 15 2 8 8 15 23 15 34 0 33 -21 82
-33 75 -5 -3 -7 -1 -4 4 7 10 -14 42 -59 92 -13 13 -19 31 -17 42 3 10 3 19 0
19 -3 0 -7 -8 -9 -17z"/>
<path d="M2774 2274 c3 -26 6 -81 7 -123 0 -42 3 -70 6 -64 3 10 10 9 27 -2
12 -8 33 -13 46 -10 19 4 34 -5 64 -38 22 -23 39 -45 38 -49 -1 -5 3 -8 9 -8
6 0 9 -7 6 -15 -4 -8 -1 -18 6 -22 8 -5 3 -10 -13 -14 -18 -5 -11 -7 26 -8
l51 -1 7 68 c3 37 6 126 7 197 l1 130 -147 3 -148 2 7 -46z"/>
<path d="M3203 2284 c-11 -30 13 -38 61 -18 25 11 46 22 46 27 0 4 -23 7 -50
7 -37 0 -52 -4 -57 -16z"/>
<path d="M3120 2255 c0 -19 5 -35 10 -35 6 0 10 16 10 35 0 19 -4 35 -10 35
-5 0 -10 -16 -10 -35z"/>
<path d="M3408 2282 l22 -7 -26 -37 c-15 -21 -33 -38 -41 -38 -7 0 -13 -7 -13
-15 0 -14 -31 -23 -105 -27 l-40 -3 -3 -101 -3 -102 33 -5 c18 -2 72 -5 121
-6 l87 -2 0 175 0 176 -27 -1 c-26 -1 -26 -1 -5 -7z"/>
<path d="M1755 2251 c3 -6 -1 -13 -8 -18 -8 -4 -19 -18 -26 -31 -7 -13 -25
-25 -42 -29 -16 -3 -29 -9 -29 -14 0 -4 -15 -15 -32 -24 -44 -21 -81 -52 -74
-63 3 -5 -4 -15 -15 -22 -19 -14 -28 -47 -9 -35 6 3 10 -1 10 -10 0 -9 -4 -13
-10 -10 -14 9 -13 -8 2 -23 9 -9 9 -12 -1 -12 -7 0 -10 -4 -6 -9 3 -6 -2 -14
-11 -19 -11 -6 -15 -16 -11 -26 4 -10 3 -15 -3 -11 -6 3 -10 2 -10 -4 0 -5 4
-13 10 -16 14 -9 -11 -45 -32 -45 -10 0 -18 -7 -18 -17 0 -14 -2 -14 -20 2
-18 16 -20 16 -26 1 -3 -9 -16 -16 -28 -16 -12 0 -16 3 -10 8 7 5 3 15 -12 32
-13 13 -24 19 -24 12 0 -6 5 -12 11 -12 7 0 9 -11 6 -30 -5 -20 -3 -30 6 -30
8 0 7 -4 -3 -10 -12 -7 -11 -13 10 -34 13 -15 19 -26 14 -26 -5 0 -9 -27 -9
-60 0 -33 3 -60 8 -60 4 0 7 -7 7 -15 0 -8 5 -15 10 -15 6 0 10 -6 10 -14 0
-8 5 -27 11 -43 20 -49 18 -106 -5 -126 -12 -10 -14 -15 -6 -11 13 7 13 5 1
-9 -11 -14 -66 -47 -79 -47 -2 0 -2 7 2 15 3 8 0 14 -7 12 -7 -1 -11 5 -9 14
1 9 -4 19 -12 22 -8 3 -12 15 -9 29 2 13 -1 43 -7 68 -6 25 -16 63 -21 85 -10
44 -13 53 -22 75 -4 8 -8 38 -9 65 l-4 50 -22 -48 c-13 -26 -25 -71 -27 -100
-4 -45 8 -178 21 -244 5 -24 52 -73 70 -73 6 0 30 -17 54 -38 24 -20 40 -30
36 -22 -7 12 -6 13 5 2 7 -6 26 -12 41 -12 15 0 28 -4 28 -9 0 -5 23 -20 50
-32 28 -12 50 -26 50 -29 0 -4 10 -6 23 -6 12 1 26 0 31 -3 12 -6 75 -6 81 1
3 2 28 1 57 -2 52 -7 126 11 161 40 7 5 27 22 45 36 18 15 31 32 28 40 -3 7 2
15 11 18 9 4 13 13 9 22 -3 8 -2 13 2 10 4 -2 15 9 25 25 9 17 11 27 4 23 -8
-6 -8 -3 1 8 7 9 15 43 18 75 4 45 36 143 48 143 1 0 2 -24 2 -52 -1 -48 35
-149 85 -240 26 -48 35 -63 40 -68 17 -14 50 -94 44 -108 -5 -13 -3 -14 6 -5
6 6 17 10 23 9 6 -2 8 -1 4 1 -15 8 -8 63 10 84 9 11 25 30 34 41 10 11 15 25
11 31 -4 6 0 8 10 4 9 -3 19 -1 23 5 5 7 2 8 -6 3 -9 -6 -12 -4 -8 7 4 8 -2
33 -12 55 -10 22 -21 51 -25 64 l-8 24 24 -20 24 -20 -19 23 c-11 12 -21 20
-24 17 -7 -7 -61 27 -66 42 -3 7 -3 20 1 28 5 14 8 14 32 -1 14 -9 4 5 -24 30
-27 25 -53 46 -57 46 -4 0 -13 6 -20 13 -7 6 -25 18 -40 26 -25 13 -26 16 -13
35 21 30 19 39 -15 54 -16 8 -30 20 -30 28 0 8 -8 14 -18 14 -10 0 -22 12 -28
28 -10 26 -9 29 27 44 27 12 39 13 42 5 3 -7 4 -2 4 11 -1 12 -4 22 -8 22 -4
0 -10 13 -14 29 -5 23 -13 31 -33 33 -22 2 -26 8 -24 27 3 34 6 35 46 21 38
-12 76 -62 76 -99 0 -24 28 -29 49 -8 10 10 11 8 5 -8 -4 -11 -12 -26 -17 -33
-5 -7 -7 -15 -4 -18 10 -11 30 40 29 76 0 28 1 31 9 15 6 -14 7 -7 2 20 -3 22
-10 43 -16 46 -5 4 -6 16 -2 28 5 16 3 20 -9 15 -10 -4 -20 3 -28 21 -11 26
-12 26 -20 6 l-7 -21 -33 20 c-18 11 -43 20 -55 20 -26 0 -41 19 -24 30 7 4
13 20 15 35 2 16 15 38 30 50 31 25 34 39 6 30 -16 -5 -20 -2 -20 14 0 11 -9
25 -20 31 -11 6 -20 7 -20 1 0 -5 -24 -14 -52 -19 -29 -6 -72 -16 -96 -24 -34
-10 -47 -10 -62 0 -17 10 -20 10 -20 -5 0 -10 7 -27 15 -37 19 -25 19 -41 -1
-60 -19 -20 -38 -21 -31 -3 4 10 -2 13 -19 9 -24 -4 -24 -4 -10 36 8 23 19 49
24 59 5 10 12 30 16 46 5 21 3 27 -9 27 -9 0 -14 -4 -10 -9z m70 -201 c-3 -5
2 -10 11 -10 14 0 15 -3 6 -12 -8 -8 -15 -8 -27 2 -13 11 -13 15 -3 21 17 11
20 11 13 -1z m33 -269 c8 -1 12 -7 9 -13 -2 -7 -10 -12 -17 -10 -7 2 -10 -3
-7 -11 6 -17 -28 -16 -45 1 -15 15 6 41 30 37 9 -2 23 -4 30 -4z"/>
<path d="M3120 2070 c0 -73 4 -120 10 -120 6 0 10 47 10 120 0 73 -4 120 -10
120 -6 0 -10 -47 -10 -120z"/>
<path d="M1115 2110 c-3 -5 1 -10 9 -10 9 0 16 5 16 10 0 6 -4 10 -9 10 -6 0
-13 -4 -16 -10z"/>
<path d="M1525 2109 c-11 -17 -2 -18 25 -4 24 14 24 14 3 15 -12 0 -25 -5 -28
-11z"/>
<path d="M1167 2023 c-17 -3 -25 -9 -21 -15 5 -8 1 -9 -9 -5 -22 9 -44 15 -34
10 4 -3 7 -19 7 -36 0 -22 3 -28 9 -18 6 10 15 1 31 -32 12 -24 33 -58 46 -73
l24 -29 -5 47 c-3 25 -9 58 -15 72 -11 31 0 34 18 5 22 -35 24 -15 3 35 -11
25 -22 45 -23 45 -2 -1 -15 -4 -31 -6z"/>
<path d="M2968 1893 c17 -2 47 -2 65 0 17 2 3 4 -33 4 -36 0 -50 -2 -32 -4z"/>
<path d="M3303 1851 c-56 -3 -104 -9 -108 -12 -7 -7 44 -24 60 -20 5 1 29 0
52 -4 37 -5 43 -10 43 -30 0 -20 -4 -23 -25 -19 -22 4 -25 1 -25 -25 0 -32
-19 -54 -22 -24 0 10 -2 23 -2 30 -1 12 -25 41 -27 33 -1 -3 -2 -23 -3 -44 -2
-24 -10 -44 -22 -53 -17 -13 -15 -16 35 -62 32 -30 49 -51 42 -55 -17 -11 -13
-26 6 -26 15 0 14 -2 -3 -15 -13 -10 -15 -17 -8 -22 6 -5 9 -24 6 -45 -4 -38
-11 -43 -54 -39 -10 1 -18 -3 -18 -8 0 -6 -9 -20 -20 -31 -12 -12 -18 -25 -15
-30 9 -14 -17 -25 -60 -25 -33 0 -41 -4 -43 -22 -3 -21 27 -41 46 -29 4 2 14
0 22 -5 12 -8 9 -15 -17 -39 -33 -30 -48 -65 -18 -40 20 17 33 4 36 -35 3 -37
-9 -75 -23 -75 -7 0 -7 -4 1 -13 6 -8 8 -17 4 -20 -3 -4 1 -7 10 -7 9 0 24
-15 32 -32 23 -49 61 -110 69 -109 23 3 28 -1 23 -20 -4 -15 12 -52 50 -118
31 -53 68 -123 84 -156 l28 -60 1 658 c0 620 -1 657 -17 655 -10 -1 -64 -4
-120 -7z m-9 -452 c-2 -3 11 -20 28 -37 l30 -32 -45 0 c-38 0 -45 3 -40 15 3
9 -2 24 -11 34 -9 10 -14 20 -12 22 7 6 55 5 50 -2z m-49 -59 c-3 -5 -13 -10
-21 -10 -8 0 -12 5 -9 10 3 6 13 10 21 10 8 0 12 -4 9 -10z m-11 -78 c2 -4 -4
-8 -14 -9 -11 -1 -22 2 -25 8 -4 5 3 9 14 9 11 0 22 -4 25 -8z m-21 -257 c4
-8 2 -17 -3 -20 -6 -4 -10 -4 -10 -1 0 2 -3 11 -6 20 -3 9 -2 16 4 16 5 0 12
-7 15 -15z"/>
<path d="M3025 1840 c-4 -6 7 -11 24 -11 17 -1 36 -2 43 -3 6 -1 13 5 16 12 5
15 -74 17 -83 2z"/>
<path d="M3120 1829 c0 -11 -4 -17 -10 -14 -5 3 -11 0 -12 -7 -4 -32 -4 -142
-1 -130 6 15 24 16 21 1 -2 -6 3 -14 9 -16 10 -3 12 15 11 72 0 46 3 80 10 87
18 18 14 28 -8 28 -14 0 -20 -7 -20 -21z"/>
<path d="M445 1620 c3 -5 8 -10 11 -10 2 0 4 5 4 10 0 6 -5 10 -11 10 -5 0 -7
-4 -4 -10z"/>
<path d="M3204 1594 c18 -18 21 -54 5 -54 -6 0 -8 -8 -4 -19 4 -13 0 -23 -11
-29 -11 -6 -13 -11 -5 -16 6 -4 11 -2 11 4 0 8 9 10 26 6 22 -6 25 -4 20 9 -3
9 -2 13 3 10 16 -9 24 15 11 30 -9 11 -10 18 -1 29 9 11 4 17 -23 30 -43 20
-52 20 -32 0z"/>
<path d="M3080 1571 c0 -6 5 -13 10 -16 6 -3 10 1 10 9 0 9 -4 16 -10 16 -5 0
-10 -4 -10 -9z"/>
<path d="M3150 1499 c0 -11 5 -17 10 -14 6 3 10 13 10 21 0 8 -4 14 -10 14 -5
0 -10 -9 -10 -21z"/>
<path d="M3095 1500 c3 -5 8 -10 11 -10 2 0 4 5 4 10 0 6 -5 10 -11 10 -5 0
-7 -4 -4 -10z"/>
<path d="M2266 1466 c3 -8 13 -17 22 -21 13 -5 13 -2 -3 15 -21 24 -26 25 -19
6z"/>
<path d="M70 1380 c0 -5 5 -10 10 -10 6 0 10 5 10 10 0 6 -4 10 -10 10 -5 0
-10 -4 -10 -10z"/>
<path d="M1069 1313 c-14 -16 -31 -41 -39 -56 -8 -16 -26 -41 -40 -55 -14 -15
-38 -46 -54 -69 -19 -29 -33 -40 -44 -36 -10 4 -13 2 -8 -5 3 -6 14 -11 24
-10 44 0 129 -17 149 -30 14 -8 30 -11 40 -6 10 4 21 8 26 9 4 2 8 3 10 5 1 1
11 3 22 5 11 2 25 12 32 21 7 10 13 14 13 8 0 -5 5 -2 10 6 8 13 10 13 10 0 0
-8 12 3 26 24 19 28 23 41 15 49 -17 17 -13 27 7 20 9 -3 14 -3 10 1 -3 4 -12
8 -20 10 -16 2 -112 92 -114 106 -1 6 -2 15 -3 20 -2 20 -48 9 -72 -17z"/>
<path d="M95 1310 c-3 -6 1 -7 9 -4 18 7 21 14 7 14 -6 0 -13 -4 -16 -10z"/>
<path d="M2310 1215 c-10 -12 -10 -15 3 -15 19 0 31 16 18 24 -5 3 -14 -1 -21
-9z"/>
<path d="M2321 1167 c-8 -11 -5 -13 19 -9 16 2 27 8 24 13 -8 13 -30 11 -43
-4z"/>
<path d="M3049 1165 c-12 -11 4 -56 24 -70 24 -17 26 -16 32 14 6 33 -5 53
-26 48 -10 -3 -19 -1 -21 5 -2 5 -6 7 -9 3z"/>
<path d="M840 1121 c0 -24 25 -34 40 -16 9 11 7 16 -9 24 -27 15 -31 14 -31
-8z"/>
<path d="M1262 1120 c-17 -28 -15 -67 4 -74 30 -11 37 -6 19 14 -10 11 -15 23
-11 27 4 4 11 1 15 -6 14 -22 19 9 7 36 -13 28 -18 28 -34 3z"/>
<path d="M2385 1130 c3 -5 11 -10 16 -10 6 0 7 5 4 10 -3 6 -11 10 -16 10 -6
0 -7 -4 -4 -10z"/>
<path d="M2470 1105 c-5 -14 -15 -25 -22 -26 -7 -1 -42 -2 -78 -3 -52 -1 -72
-6 -97 -25 -26 -19 -50 -25 -126 -32 -51 -4 -107 -11 -123 -15 -48 -11 -104
-43 -104 -59 0 -8 -5 -15 -11 -15 -5 0 -8 -4 -5 -9 3 -4 -1 -17 -9 -27 -21
-27 -20 -54 1 -28 8 10 13 13 9 6 -6 -12 33 -34 48 -25 4 2 7 -3 7 -12 0 -9 4
-14 9 -10 6 3 14 -3 20 -12 6 -11 11 -13 11 -5 0 8 11 3 27 -12 21 -20 30 -23
46 -14 15 7 22 7 28 -3 8 -14 10 -12 100 73 10 9 22 26 29 37 12 24 35 29 27
6 -10 -23 41 -42 86 -32 20 5 37 12 37 16 0 4 7 8 15 8 8 0 15 -9 15 -19 0
-11 5 -16 10 -13 6 3 10 -1 10 -10 0 -10 5 -13 12 -9 6 4 36 8 67 9 87 3 108
12 122 52 15 47 7 128 -17 155 -24 26 -103 78 -121 78 -8 0 -18 -11 -23 -25z
m118 -137 c18 -43 32 -80 32 -83 0 -13 -40 -3 -48 13 -8 15 -32 133 -32 157 0
19 18 -14 48 -87z"/>
<path d="M552 945 c0 -11 4 -33 8 -50 7 -27 8 -27 8 -5 0 14 -4 36 -8 50 -6
20 -8 21 -8 5z"/>
<path d="M1331 958 c2 -2 18 -14 34 -28 l30 -25 -24 28 c-14 15 -29 27 -34 27
-6 0 -8 -1 -6 -2z"/>
<path d="M512 885 c0 -16 2 -22 5 -12 2 9 2 23 0 30 -3 6 -5 -1 -5 -18z"/>
<path d="M1452 842 c32 -33 62 -71 67 -84 19 -49 70 -106 100 -113 17 -4 31
-11 31 -17 0 -7 4 -7 13 0 9 8 18 3 32 -18 24 -36 44 -45 51 -25 11 29 -208
242 -296 289 l-55 29 57 -61z"/>
<path d="M503 828 c1 -15 6 -30 10 -34 11 -11 8 29 -3 46 -8 12 -10 9 -7 -12z"/>
<path d="M562 799 c-1 -9 -5 -32 -8 -50 -4 -28 -3 -31 6 -16 6 9 9 32 7 50 -2
17 -5 25 -5 16z"/>
<path d="M98 735 c-22 -19 -35 -23 -63 -18 -30 5 -35 3 -35 -13 0 -17 9 -19
113 -19 101 0 118 -3 170 -27 31 -15 82 -50 112 -79 65 -61 88 -58 27 4 -48
49 -177 119 -222 120 -3 0 -20 4 -38 8 -17 4 -35 3 -38 -2 -3 -5 -10 -7 -15
-4 -5 4 -2 17 7 31 20 30 16 30 -18 -1z"/>
<path d="M1801 579 c-6 -16 -24 -42 -41 -57 -16 -14 -30 -35 -30 -45 0 -10 -5
-27 -10 -37 -7 -13 -7 -21 0 -25 7 -4 7 -13 0 -26 -7 -13 -7 -19 0 -19 5 0 10
6 10 14 0 8 5 18 11 22 8 4 9 -1 4 -16 -6 -18 -4 -22 9 -17 8 3 18 2 21 -2 6
-10 -19 -34 -27 -26 -3 3 -8 -16 -12 -41 -3 -26 -4 -50 -1 -52 3 -3 5 6 5 19
1 21 2 22 13 8 18 -24 55 -41 62 -29 3 5 -2 10 -13 10 -28 0 -55 34 -47 59 17
55 91 37 83 -20 -3 -22 -2 -26 8 -18 6 5 10 20 8 32 -4 20 -4 21 4 2 7 -14 19
-20 43 -20 l34 0 -1 -70 c-1 -38 1 -52 3 -30 7 75 10 83 40 79 16 -1 51 -5 79
-8 28 -3 55 -6 60 -7 25 -4 54 3 68 17 10 9 16 11 16 4 0 -6 7 -18 15 -26 13
-14 15 -13 15 10 0 14 4 26 10 26 5 0 7 -7 3 -16 -4 -12 -2 -15 8 -12 8 3 13
11 11 17 -1 6 2 11 8 11 5 0 11 -19 12 -42 l1 -43 7 50 c4 28 8 45 8 39 2 -13
91 -7 109 8 7 5 12 5 15 -3 6 -17 129 -23 154 -7 25 16 127 71 134 74 3 0 20
5 38 9 17 4 32 11 32 16 0 5 -3 8 -7 8 -20 -3 -23 2 -8 17 9 9 14 23 11 30 -3
8 -1 14 4 14 6 0 10 6 10 14 0 8 6 21 13 28 20 20 27 47 16 54 -14 8 -99 -16
-99 -28 0 -5 -5 -6 -11 -2 -6 3 -15 1 -19 -6 -7 -11 -12 -10 -25 3 -20 21 -26
21 -19 3 3 -8 0 -17 -5 -21 -6 -3 -9 -11 -6 -16 4 -5 1 -9 -5 -9 -6 0 -9 -4
-6 -8 2 -4 1 -14 -3 -21 -6 -9 -11 -10 -15 -2 -4 6 -3 11 1 11 5 0 9 13 9 30
1 16 -2 28 -6 25 -5 -3 -11 1 -13 7 -3 7 -6 -3 -8 -22 -1 -19 -3 -41 -3 -49
-2 -21 -25 -25 -32 -7 -3 9 -15 16 -26 16 -12 0 -18 5 -15 13 3 8 -8 11 -39
10 -55 -2 -113 -11 -127 -20 -5 -3 -25 -6 -44 -5 -18 1 -33 -2 -33 -6 0 -9
-79 -8 -108 2 -26 9 -56 -9 -45 -27 4 -7 0 -8 -13 -3 -23 10 -34 10 -56 1 -12
-5 -17 0 -20 17 l-5 23 -11 -25 -11 -25 3 25 c1 14 6 32 9 40 9 24 18 90 13
90 -3 0 -10 -19 -16 -42 -9 -31 -14 -38 -21 -27 -6 10 -9 10 -9 2 0 -7 -6 -13
-13 -13 -8 0 -19 -10 -24 -22 -9 -19 -10 -15 -8 23 3 37 0 46 -13 46 -10 0
-25 -9 -34 -20 -16 -18 -18 -18 -18 -2 0 14 -3 15 -15 5 -10 -8 -15 -9 -15 -2
0 7 -7 9 -17 5 -14 -6 -15 0 -10 40 8 54 3 60 -12 16z m284 -168 c3 -6 -4 -9
-15 -8 -11 1 -20 5 -20 9 0 11 28 10 35 -1z"/>
<path d="M1775 569 c-4 -6 -5 -12 -2 -15 2 -3 7 2 10 11 7 17 1 20 -8 4z"/>
<path d="M3250 564 c0 -8 -4 -13 -9 -10 -5 4 -7 -4 -3 -16 3 -13 1 -19 -5 -15
-6 4 -10 -1 -9 -11 0 -9 -5 -16 -12 -14 -8 1 -10 -2 -7 -8 4 -6 0 -19 -8 -28
-23 -27 -38 -103 -24 -121 9 -11 9 -13 0 -8 -6 4 -14 1 -16 -5 -6 -14 -10 15
-8 45 1 9 -2 17 -7 17 -15 0 -9 33 8 48 13 12 13 13 -1 9 -9 -3 -22 -1 -30 4
-11 7 -10 9 6 10 11 0 15 3 8 5 -7 3 -9 12 -6 20 3 8 0 14 -6 14 -12 0 -24
-38 -25 -82 -1 -15 -5 -28 -10 -28 -4 0 -5 -7 -2 -16 3 -8 2 -12 -4 -9 -9 5
-14 -6 -12 -26 1 -3 -5 -23 -13 -45 -14 -39 -14 -39 -16 -9 -1 17 -1 36 0 42
1 8 -5 10 -14 7 -8 -3 -15 -14 -15 -24 0 -17 -28 -36 -38 -25 -3 2 2 7 11 11
12 4 15 14 10 36 -5 24 -3 29 6 23 10 -6 11 -3 2 14 -9 16 -9 21 1 21 9 0 9 3
0 12 -9 9 -15 8 -27 -8 -8 -10 -15 -27 -15 -36 0 -10 -4 -18 -10 -18 -5 0 -11
-19 -11 -42 l-1 -43 -7 35 c-4 19 -14 46 -21 60 -8 14 -13 28 -12 33 4 15 -50
28 -64 16 -16 -13 -18 -29 -4 -29 19 0 91 -53 87 -64 -3 -6 -10 -10 -17 -8 -6
1 -45 5 -85 7 -66 4 -73 3 -78 -15 -3 -11 -1 -20 5 -20 5 0 6 -5 3 -10 -4 -6
-3 -9 2 -8 4 1 17 -1 28 -4 11 -4 40 -12 65 -18 44 -12 44 -12 20 -26 -14 -7
-41 -14 -60 -14 l-35 -2 29 -12 c27 -12 28 -14 10 -24 -16 -10 -13 -11 16 -6
31 5 33 4 18 -8 -9 -8 -18 -25 -20 -38 -2 -20 1 -24 17 -22 16 2 17 1 5 -7
-16 -11 -40 3 -40 24 0 7 -7 15 -15 19 -8 3 -15 1 -15 -4 0 -14 -61 8 -82 30
-10 11 -29 20 -41 21 -12 0 -34 2 -49 4 -37 5 -44 -10 -16 -30 l23 -17 -25 7
c-18 4 -21 3 -11 -3 8 -6 11 -17 8 -26 -3 -8 -2 -18 3 -21 6 -4 10 3 10 14 0
12 4 21 10 21 5 0 7 -6 4 -14 -8 -20 23 -28 41 -10 18 19 102 21 119 4 8 -9 1
-11 -32 -8 -38 3 -43 1 -48 -19 -4 -13 -10 -20 -15 -17 -5 3 -9 -1 -9 -8 0 -9
-3 -9 -10 2 -8 13 -11 13 -22 1 -10 -10 -10 -12 0 -7 6 4 12 3 12 -2 0 -6 7
-13 16 -16 8 -3 12 -2 9 4 -3 6 -2 10 3 10 6 0 12 -7 16 -15 3 -9 18 -15 40
-15 27 0 34 4 31 18 -2 9 -4 21 -4 26 -1 4 -12 5 -25 2 -17 -4 -26 -1 -30 10
-5 14 -1 16 25 10 17 -3 35 -6 40 -6 5 0 6 -6 3 -14 -3 -7 2 -21 11 -30 15
-14 54 -16 341 -16 l324 0 0 166 c0 140 -3 168 -16 182 -11 10 -13 17 -5 20
13 4 15 32 1 32 -5 0 -7 7 -4 15 4 8 1 15 -5 15 -6 0 -11 -6 -11 -12 0 -7 -5
-5 -11 5 -5 9 -7 23 -3 30 4 6 -2 4 -13 -5 -11 -10 -23 -18 -27 -18 -23 0 -33
-30 -30 -85 3 -50 2 -56 -9 -41 -12 16 -17 13 -60 -33 -44 -47 -67 -65 -52
-41 3 6 2 10 -3 10 -6 0 -8 10 -4 22 5 21 6 21 13 2 6 -16 8 -16 8 -2 1 9 -3
20 -9 23 -5 3 -10 13 -10 21 0 11 4 12 19 5 14 -8 23 -5 39 9 12 11 26 20 32
20 5 0 10 9 10 20 0 29 -16 25 -50 -12 -25 -28 -29 -30 -30 -13 0 11 3 31 7
43 4 18 8 20 14 10 6 -9 9 -9 9 -1 0 6 -5 15 -10 18 -7 4 -6 14 2 28 6 12 12
29 13 37 1 8 2 23 3 34 1 12 7 16 18 12 14 -5 15 -4 4 9 -8 10 -9 15 -1 15 6
0 11 9 11 20 0 11 -7 20 -15 20 -8 0 -15 -7 -15 -16z m130 -154 c0 -11 -4 -20
-9 -20 -5 0 -7 9 -4 20 3 11 7 20 9 20 2 0 4 -9 4 -20z m-250 -50 c0 -5 -5
-10 -11 -10 -5 0 -7 5 -4 10 3 6 8 10 11 10 2 0 4 -4 4 -10z m35 -95 c0 -14
-3 -25 -7 -25 -4 0 -5 -17 -3 -37 4 -29 2 -34 -6 -21 -7 14 -8 81 0 117 3 13
15 -13 16 -34z m-275 -70 c-14 -17 -30 -20 -30 -6 0 5 8 12 18 14 9 3 19 5 21
6 2 0 -2 -6 -9 -14z m40 -26 c0 -5 -4 -9 -8 -9 -5 0 -9 7 -9 15 0 8 4 12 9 9
4 -3 8 -9 8 -15z m20 -80 c0 -27 -4 -48 -9 -45 -4 3 -6 17 -3 31 3 18 0 25
-12 25 -9 0 -16 5 -16 10 0 6 7 10 15 10 8 0 15 5 15 10 0 6 2 10 5 10 3 0 5
-23 5 -51z m-310 17 c0 -3 -4 -8 -10 -11 -5 -3 -10 -1 -10 4 0 6 5 11 10 11 6
0 10 -2 10 -4z"/>
<path d="M3130 545 c7 -8 17 -15 22 -15 6 0 5 7 -2 15 -7 8 -17 15 -22 15 -6
0 -5 -7 2 -15z"/>
<path d="M3306 527 c3 -10 9 -15 12 -12 3 3 0 11 -7 18 -10 9 -11 8 -5 -6z"/>
<path d="M642 471 c1 -18 6 -35 10 -37 10 -6 4 53 -6 63 -3 4 -5 -8 -4 -26z"/>
<path d="M2997 493 c-2 -5 -4 -24 -4 -43 0 -22 1 -26 4 -12 3 14 10 22 18 19
9 -4 11 1 8 14 -6 22 -20 33 -26 22z"/>
<path d="M3334 476 c5 -16 4 -17 -9 -6 -13 11 -15 8 -14 -16 0 -16 3 -23 6
-16 2 6 9 10 14 6 15 -9 23 26 9 39 -10 10 -12 8 -6 -7z"/>
<path d="M3267 432 c-18 -20 -22 -32 -9 -32 4 0 12 11 19 25 13 30 12 31 -10
7z"/>
<path d="M2801 401 c-8 -6 -9 -11 -3 -15 6 -3 14 -1 17 5 9 14 2 20 -14 10z"/>
<path d="M2620 246 c0 -2 13 -6 29 -8 17 -2 28 -1 25 4 -5 8 -54 12 -54 4z"/>
<path d="M2690 236 c0 -2 7 -6 15 -10 8 -3 15 -1 15 4 0 6 -7 10 -15 10 -8 0
-15 -2 -15 -4z"/>
<path d="M0 115 l0 -115 145 0 145 0 0 38 c0 64 -17 77 -99 77 l-71 0 -54 58
c-30 31 -57 57 -60 57 -3 0 -6 -52 -6 -115z"/>
<path d="M2535 210 c-4 -6 3 -10 14 -10 25 0 27 6 6 13 -8 4 -17 2 -20 -3z"/>
<path d="M1662 170 c-1 -25 -5 -63 -8 -85 -4 -32 -3 -36 6 -23 6 10 9 47 7 85
-2 48 -4 55 -5 23z"/>
<path d="M2697 194 c-12 -13 3 -21 28 -17 13 3 22 9 19 14 -6 10 -38 12 -47 3z"/>
<path d="M2490 130 c0 -5 5 -10 11 -10 5 0 7 5 4 10 -3 6 -8 10 -11 10 -2 0
-4 -4 -4 -10z"/>
<path d="M2720 130 c0 -12 17 -12 45 0 17 7 15 9 -12 9 -18 1 -33 -3 -33 -9z"/>
<path d="M1933 65 c0 -38 2 -53 4 -32 2 20 2 52 0 70 -2 17 -4 1 -4 -38z"/>
<path d="M2440 120 c0 -4 9 -10 20 -13 11 -3 20 -2 20 3 0 4 -9 10 -20 13 -11
3 -20 2 -20 -3z"/>
<path d="M2490 106 c0 -2 7 -6 15 -10 8 -3 15 -1 15 4 0 6 -7 10 -15 10 -8 0
-15 -2 -15 -4z"/>
<path d="M1880 90 c0 -5 6 -10 14 -10 8 0 18 5 21 10 3 6 -3 10 -14 10 -12 0
-21 -4 -21 -10z"/>
<path d="M2282 60 c0 -14 2 -19 5 -12 2 6 2 18 0 25 -3 6 -5 1 -5 -13z"/>
<path d="M1117 56 c-4 -10 -1 -13 8 -9 8 3 12 9 9 14 -7 12 -11 11 -17 -5z"/>
<path d="M2581 34 c0 -11 3 -14 6 -6 3 7 2 16 -1 19 -3 4 -6 -2 -5 -13z"/>
<path d="M1651 24 c0 -11 3 -14 6 -6 3 7 2 16 -1 19 -3 4 -6 -2 -5 -13z"/>
<path d="M2486 28 c7 -11 34 -10 34 1 0 6 -9 9 -19 8 -11 0 -17 -5 -15 -9z"/>
<path d="M2535 10 c3 -5 14 -10 23 -10 15 0 15 2 2 10 -20 13 -33 13 -25 0z"/>
</g>
</svg>
