<?xml version="1.0" standalone="no"?>
<!DOCTYPE svg PUBLIC "-//W3C//DTD SVG 20010904//EN"
 "http://www.w3.org/TR/2001/REC-SVG-20010904/DTD/svg10.dtd">
<svg version="1.0" xmlns="http://www.w3.org/2000/svg"
 width="200.000000pt" height="200.000000pt" viewBox="0 0 200.000000 200.000000"
 preserveAspectRatio="xMidYMid meet">
<metadata>
Created by potrace 1.11, written by Peter Selinger 2001-2013
</metadata>
<g transform="translate(0.000000,200.000000) scale(0.100000,-0.100000)"
fill="#000000" stroke="none">
<path d="M356 1094 c-20 -19 -21 -58 -2 -73 25 -21 69 -9 80 21 17 50 -42 89
-78 52z m54 -32 c0 -26 -10 -33 -31 -21 -22 12 -14 39 12 39 12 0 19 -7 19
-18z"/>
<path d="M493 1032 c-5 -4 -15 -17 -22 -30 -10 -19 -8 -26 13 -47 30 -30 40
-31 67 -4 19 19 19 50 0 72 -11 11 -46 16 -58 9z m45 -45 c4 -20 -25 -34 -39
-20 -14 14 1 45 20 41 9 -2 17 -11 19 -21z"/>
<path d="M650 967 l0 -75 59 2 c77 2 92 16 18 16 l-57 0 0 59 c0 33 -4 63 -10
66 -6 4 -10 -21 -10 -68z"/>
<path d="M805 1030 c-3 -5 -1 -10 4 -10 6 0 11 5 11 10 0 6 -2 10 -4 10 -3 0
-8 -4 -11 -10z"/>
<path d="M999 1034 c-5 -48 -3 -136 3 -140 4 -3 9 0 9 5 1 6 3 16 4 21 1 6 3
13 4 16 0 3 13 -3 29 -14 43 -30 52 -34 52 -24 0 6 -14 19 -31 30 l-31 20 38
26 c46 31 27 35 -22 5 -19 -11 -34 -19 -35 -17 0 2 -2 18 -4 36 -3 32 -14 56
-16 36z"/>
<path d="M1280 1030 c0 -5 5 -10 11 -10 5 0 7 5 4 10 -3 6 -8 10 -11 10 -2 0
-4 -4 -4 -10z"/>
<path d="M1337 1033 c-11 -10 -8 -131 3 -138 6 -4 10 22 10 69 0 76 -1 82 -13
69z"/>
<path d="M222 1004 c-22 -46 23 -88 68 -64 19 10 25 27 20 60 -5 39 -71 42
-88 4z m58 -9 c13 -16 6 -35 -15 -35 -18 0 -28 17 -21 35 7 19 20 19 36 0z"/>
<path d="M800 951 c0 -28 5 -53 10 -56 6 -4 10 15 10 49 0 31 -4 56 -10 56 -5
0 -10 -22 -10 -49z"/>
<path d="M850 943 c0 -34 4 -52 10 -48 6 3 10 23 10 44 0 34 3 39 28 44 40 8
56 -6 57 -47 0 -20 4 -35 9 -34 11 3 12 57 3 83 -5 12 -19 15 -62 14 l-55 -2
0 -54z"/>
<path d="M1144 951 c35 -69 51 -71 81 -11 27 54 29 60 17 60 -4 0 -19 -21 -31
-47 l-24 -48 -21 48 c-11 26 -27 47 -34 47 -8 0 -4 -16 12 -49z"/>
<path d="M1279 985 c-1 -8 -1 -26 -1 -40 0 -48 2 -56 12 -50 6 3 10 28 10 56
0 27 -4 49 -10 49 -5 0 -10 -7 -11 -15z"/>
<path d="M1382 972 c-10 -30 -1 -66 20 -74 19 -8 78 -2 89 9 16 16 19 54 6 74
-9 14 -23 19 -58 19 -42 0 -48 -3 -57 -28z m88 8 c15 -8 18 -24 11 -62 0 -5
-18 -8 -40 -8 -31 0 -40 4 -44 22 -12 44 30 71 73 48z"/>
<path d="M1527 991 c-3 -5 -2 -55 2 -89 3 -30 17 0 16 33 -2 30 2 38 22 46 31
12 29 12 48 -8 16 -16 17 -15 13 3 -3 15 -12 19 -51 20 -26 1 -49 -1 -50 -5z"/>
<path d="M1640 994 c0 -4 14 -29 30 -56 30 -48 30 -50 10 -55 -22 -6 -28 -23
-7 -23 25 0 46 28 84 113 20 45 -5 30 -30 -18 l-23 -46 -22 46 c-12 25 -26 45
-32 45 -5 0 -10 -3 -10 -6z"/>
<path d="M350 970 c-12 -7 -12 -12 -2 -22 9 -9 15 -9 24 0 16 16 -2 34 -22 22z"/>
<path d="M396 972 c-2 -4 -1 -14 4 -22 7 -11 12 -12 21 -3 6 6 8 16 5 22 -8
13 -23 14 -30 3z"/>
<path d="M322 918 c5 -15 28 -18 29 -3 0 6 -7 12 -17 13 -10 3 -15 -1 -12 -10z"/>
<path d="M423 918 c2 -7 10 -13 17 -13 7 0 15 6 18 13 2 7 -5 12 -18 12 -13 0
-20 -5 -17 -12z"/>
<path d="M487 882 c-23 -25 -21 -58 4 -76 28 -19 61 -7 74 29 8 23 6 30 -14
46 -29 24 -43 24 -64 1z m50 -28 c3 -8 1 -20 -5 -26 -15 -15 -43 8 -35 28 7
19 32 18 40 -2z"/>
<path d="M232 878 c-15 -15 -15 -61 0 -76 27 -27 88 0 88 40 0 36 -62 62 -88
36z m58 -39 c0 -12 -7 -19 -19 -19 -26 0 -36 17 -21 35 15 18 40 8 40 -16z"/>
<path d="M350 875 c0 -10 7 -15 18 -13 21 4 19 22 -2 26 -10 2 -16 -3 -16 -13z"/>
<path d="M400 875 c0 -8 7 -15 15 -15 8 0 15 7 15 15 0 8 -7 15 -15 15 -8 0
-15 -7 -15 -15z"/>
<path d="M361 807 c-20 -25 -20 -54 -1 -72 41 -37 106 14 76 60 -16 25 -58 31
-75 12z m54 -37 c0 -8 -10 -16 -22 -18 -22 -3 -32 16 -16 32 12 11 38 2 38
-14z"/>
</g>
</svg>
