<?xml version="1.0" encoding="utf-8"?>
<!-- Generator: Adobe Illustrator 19.2.1, SVG Export Plug-In . SVG Version: 6.00 Build 0)  -->
<svg version="1.1" id="Capa_1" xmlns="http://www.w3.org/2000/svg" xmlns:xlink="http://www.w3.org/1999/xlink" x="0px" y="0px"
	 viewBox="0 0 200 200" style="enable-background:new 0 0 200 200;" xml:space="preserve">
<style type="text/css">
	.st0{fill:#FFFFFF;}
	.st1{fill:#E30613;}
	.st2{fill:#1D1D1B;}
</style>
<g>
	<polygon points="195.7,169.6 196,165.9 192,165.3 190.8,171.6 190.8,176.2 	"/>
	<path d="M18.9,5.1l176.8,164.4c0,0-0.5,7.3-0.5,16.9c0,9.3-6.6,8.7-6.6,8.7s-164.3,0-175.8,0C3.1,195,4,184,4,184L5.6,22.7
		c0-6.9,0-10.5,0-10.5s-0.6-2.2,3-3.9C11.8,6.9,17.4,4.5,18.9,5.1z"/>
	<path d="M171.6,185.8C171.6,185.8,171.6,185.8,171.6,185.8L23.7,184c-1,0-1.8-0.8-1.8-1.7L17.1,6.8c0-0.5,0.2-1.1,0.6-1.4
		c0.4-0.4,0.9-0.5,1.5-0.4l169.5,27.4c0.8,0.1,1.5,0.8,1.5,1.7l5.8,131.8c0,0.6-0.2,1.1-0.7,1.5l-22.6,18
		C172.4,185.7,172,185.8,171.6,185.8z M25.5,180.4l145.5,1.8l21.4-17l-5.7-129.4L20.7,8.9L25.5,180.4z"/>
	<polygon class="st0" points="21.1,6.7 21,151.9 193.4,157 187.8,34.6 	"/>
	<polygon class="st1" points="20.9,150.7 20.9,182.6 174,183.5 193.7,165.2 193.3,155.1 	"/>
	<g>
		<polygon class="st0" points="194.4,166.7 174.8,167.7 174.8,185.9 		"/>
		<path d="M174.8,187.3c-0.2,0-0.4,0-0.5-0.1c-0.5-0.2-0.8-0.7-0.8-1.3v-18.2c0-0.7,0.6-1.3,1.3-1.4l19.6-1c0.6,0,1.1,0.3,1.3,0.8
			c0.2,0.5,0.1,1.1-0.3,1.5l-19.6,19.2C175.5,187.2,175.1,187.3,174.8,187.3z M176.1,169v13.6l14.7-14.4L176.1,169z"/>
	</g>
	<g>
		<path d="M61.8,41.4c1.4,0.2,2.7,0.6,3.9,1c1.2,0.5,2.2,1.1,3,1.9c0.9,0.8,1.5,1.7,2,2.7c0.5,1.1,0.7,2.3,0.8,3.6
			c0,1.9-0.4,3.3-1.3,4.3c-0.9,1-2.1,1.7-3.8,2l0,0.1c1.2,0.3,2.2,0.8,3,1.3c0.8,0.6,1.5,1.2,2,1.9c0.5,0.7,0.9,1.5,1.1,2.3
			c0.2,0.8,0.4,1.6,0.4,2.3c0.1,6.9-4.3,9.9-13.3,8.9L48,72.7l-0.3-33.4L61.8,41.4z M55.9,47l0.1,6.4l3.2,0.4c1,0.1,1.8-0.1,2.4-0.6
			c0.6-0.5,1-1.3,0.9-2.1c0-0.9-0.3-1.7-0.8-2.4c-0.5-0.7-1.3-1.1-2.3-1.2L55.9,47z M56.2,66.8l4,0.4c1.2,0.1,2.1-0.1,2.8-0.6
			c0.7-0.6,1-1.5,1-2.7c0-0.8-0.3-1.5-0.9-2.2c-0.6-0.7-1.6-1.2-3-1.3l-4-0.5L56.2,66.8z"/>
		<path d="M103.2,72c-0.7,1.6-1.7,2.8-2.9,3.7c-1.3,0.9-2.9,1.5-4.7,1.7c-1.8,0.3-3.9,0.3-6.1,0.1c-1.8-0.2-3.5-0.5-5.2-1
			c-1.7-0.5-3.2-1.2-4.5-2.3c-1.3-1.1-2.4-2.5-3.3-4.3c-0.8-1.8-1.3-4.1-1.3-7l-0.4-19.7l8.2,1.2l0.4,19.1c0,2.2,0.6,3.9,1.6,5
			c1,1.1,2.5,1.8,4.6,2c2.1,0.2,3.6-0.1,4.7-0.9c1.1-0.8,1.6-2.2,1.6-4.4l-0.5-19.1l8.2,1.2l0.6,18.6
			C104.1,68.5,103.8,70.4,103.2,72z"/>
		<path d="M107.5,48.1l22.3,3.3l0.3,6.4L116,55.8l0.2,5.3l13.3,1.7l0.2,6.2l-13.3-1.6l0.2,5.6l14.3,1.6l0.3,6.5l-22.6-2.3
			L107.5,48.1z"/>
		<path d="M142.5,53.2l13.9,20.5l-1-18.6l7.6,1.1l1.6,28.4l-9.6-1l-13.8-20.1l0.9,18.8l-7.6-0.8l-1.2-29.7L142.5,53.2z"/>
		<path d="M48.3,75.1l28,2.8l0.2,8.8L59,85.1l0.1,8l16.4,1.2l0.2,8.4l-16.5-1.1l0.2,16.1l-10.7-0.5L48.3,75.1z"/>
		<path d="M79.4,78.2l10.5,1l1,40.1l-10.7-0.5L79.4,78.2z"/>
		<path d="M107.2,80.9l17.5,26.4l-0.9-24.7l9.7,1l1.6,37.7l-12.3-0.5l-17.4-25.9l0.8,25.2l-9.8-0.4l-1.1-39.8L107.2,80.9z"/>
	</g>
	<g>
		<path class="st1" d="M139.9,95.4c-0.1-1.3,0.4-2.3,1.3-2.9c0.9-0.6,2-0.9,3.3-0.8c1.3,0.1,2.4,0.6,3.4,1.4c1,0.8,1.5,1.8,1.5,3.1
			c0,1-0.4,1.9-1.4,2.7c-1,0.8-2,1.1-3.2,1c-1.3-0.1-2.4-0.6-3.4-1.5C140.4,97.5,139.9,96.5,139.9,95.4z M145.6,116.5
			c-1.3-0.1-2.5-0.5-3.5-1.3c-1-0.8-1.5-1.8-1.6-3.2c0-1.1,0.4-2.1,1.2-2.8c0.9-0.7,2-1.1,3.3-1c1.3,0.1,2.5,0.5,3.5,1.4
			c1,0.8,1.5,1.8,1.5,2.9c0.1,1.3-0.4,2.3-1.3,2.9C148,116.3,146.9,116.6,145.6,116.5z"/>
		<path class="st1" d="M164,105.4c0.1,2.5-0.1,4.7-0.8,6.8c-0.7,2.1-1.7,4.2-3.2,6.3c-0.8,1.2-1.5,1.9-2,2.2
			c-0.5,0.3-1.2,0.4-2.1,0.4c-0.7,0-1-0.2-1-0.5c0-0.1,0.3-0.6,0.8-1.6c0.5-1,1-2.1,1.6-3.5c0.5-1.3,1-2.9,1.3-4.7
			c0.4-1.8,0.5-3.7,0.4-5.8c-0.1-2-0.4-4-1-5.9c-0.6-1.9-1.2-3.5-1.8-4.9c-0.7-1.4-1.3-2.6-1.9-3.7c-0.6-1.1-0.9-1.6-0.9-1.7
			c0-0.3,0.3-0.4,1-0.4c0.9,0.1,1.7,0.3,2.2,0.7c0.5,0.3,1.3,1.2,2.2,2.5c0.8,1.2,1.6,2.3,2.2,3.4c0.6,1.1,1.2,2.2,1.6,3.3
			c0.5,1.1,0.8,2.2,1.1,3.4C163.8,102.9,164,104.2,164,105.4z"/>
	</g>
	<path d="M79,26.4c0,2.3-1.8,3.8-4.2,3.4c-2.4-0.4-4.3-2.6-4.4-4.9c0-2.3,1.8-3.8,4.2-3.4C77,21.9,79,24.1,79,26.4z"/>
	<path class="st2" d="M75.5,30.1c-0.2,0-0.5,0-0.8-0.1c-2.5-0.4-4.5-2.7-4.5-5.1c0-1,0.3-2,1-2.6c0.8-0.9,2.1-1.2,3.4-1
		c2.5,0.4,4.5,2.7,4.5,5.1c0,1-0.3,1.9-1,2.6C77.5,29.7,76.6,30.1,75.5,30.1z M73.9,21.6c-0.9,0-1.8,0.3-2.3,0.9
		c-0.6,0.6-0.9,1.4-0.9,2.4c0,2.2,1.9,4.3,4.2,4.7c1.2,0.2,2.3-0.1,3.1-0.9c0.6-0.6,0.9-1.4,0.9-2.3c0-2.2-1.9-4.3-4.2-4.7
		C74.4,21.7,74.1,21.6,73.9,21.6z"/>
	<path d="M136.2,36.2c0.1,2.1-1.8,3.5-4.1,3.1c-2.4-0.4-4.4-2.4-4.4-4.6c-0.1-2.1,1.8-3.5,4.1-3.1C134.1,32,136.1,34.1,136.2,36.2z"
		/>
	<path class="st2" d="M132.8,39.6c-0.3,0-0.5,0-0.8-0.1c-2.5-0.4-4.5-2.5-4.6-4.8c0-0.9,0.3-1.7,0.9-2.3c0.8-0.8,2.1-1.2,3.5-1
		c2.4,0.4,4.5,2.6,4.6,4.8c0,0.9-0.3,1.7-0.8,2.3C134.9,39.2,133.9,39.6,132.8,39.6z M130.9,31.7c-0.9,0-1.8,0.3-2.4,0.9
		c-0.5,0.5-0.8,1.2-0.7,2c0.1,2,2,4,4.3,4.4c1.3,0.2,2.4-0.1,3.2-0.9c0.5-0.5,0.8-1.2,0.7-2c-0.1-2-2-4-4.3-4.4
		C131.4,31.8,131.2,31.7,130.9,31.7z"/>
	<g>
		<g>
			<path d="M63,126.1l4.5,0.2l0,0.8l-3.7-0.2l-0.1,2.4l3.7,0.2l0,0.8l-3.7-0.2l-0.1,3.1l3.7,0.1l0,0.8l-4.5-0.2L63,126.1z"/>
			<path d="M68.7,126.3l0.8,0l-0.2,7l3,0.1l0,0.7l-3.8-0.1L68.7,126.3z"/>
			<path d="M76.6,126.7l4,0.2l0,0.7l-3.2-0.1l-0.1,2.4l3.2,0.1l0,0.7l-3.2-0.1l-0.1,3.8l-0.8,0L76.6,126.7z"/>
			<path d="M81.8,126.9l0.8,0l-0.2,7.6l-0.8,0L81.8,126.9z"/>
			<path d="M84.1,134.6l0.2-7.6l0.2,0l5.1,6l0.1-5.8l0.8,0l-0.2,7.5l-0.2,0l-5.1-5.9l-0.1,5.7L84.1,134.6z"/>
			<path d="M95,135.1l0.2-7.5l1.6,0.1c1.2,0.1,2,0.2,2.6,0.4c0.8,0.3,1.3,0.8,1.8,1.4c0.4,0.6,0.6,1.4,0.6,2.3
				c0,0.7-0.2,1.4-0.6,1.9c-0.4,0.5-0.8,0.9-1.4,1.2c-0.6,0.3-1.3,0.4-2.3,0.3L95,135.1z M95.8,134.4l0.9,0c1.1,0,1.9,0,2.3-0.1
				c0.6-0.2,1.1-0.5,1.4-0.9c0.4-0.5,0.5-1,0.6-1.7c0-0.7-0.2-1.3-0.5-1.9c-0.4-0.5-0.9-0.9-1.5-1.1c-0.5-0.2-1.3-0.3-2.4-0.3
				l-0.6,0L95.8,134.4z"/>
			<path d="M103.3,127.9l4.5,0.2l0,0.7l-3.7-0.2L104,131l3.7,0.2l0,0.7l-3.7-0.2l-0.1,2.9l3.7,0.1l0,0.7l-4.5-0.2L103.3,127.9z"/>
			<path d="M111,134.3l0.7-0.4c0.5,0.8,1,1.2,1.6,1.3c0.3,0,0.5,0,0.7-0.1c0.2-0.1,0.4-0.3,0.5-0.4c0.1-0.2,0.2-0.4,0.2-0.6
				c0-0.2-0.1-0.5-0.3-0.7c-0.2-0.3-0.7-0.7-1.3-1.2c-0.6-0.5-1.1-0.8-1.2-1.1c-0.3-0.4-0.4-0.7-0.4-1.1c0-0.3,0.1-0.6,0.3-0.9
				c0.2-0.3,0.4-0.5,0.7-0.6c0.3-0.1,0.6-0.2,1-0.2c0.4,0,0.7,0.1,1,0.3c0.3,0.2,0.7,0.5,1,1l-0.7,0.4c-0.3-0.4-0.5-0.6-0.7-0.8
				c-0.2-0.1-0.4-0.2-0.7-0.2c-0.3,0-0.6,0.1-0.8,0.2c-0.2,0.2-0.3,0.4-0.3,0.6c0,0.2,0,0.3,0.1,0.5c0.1,0.2,0.2,0.3,0.4,0.5
				c0.1,0.1,0.4,0.4,1,0.8c0.7,0.5,1.1,0.9,1.4,1.3c0.2,0.4,0.4,0.7,0.4,1.1c0,0.5-0.2,1-0.7,1.4c-0.4,0.4-1,0.6-1.6,0.5
				c-0.5,0-0.9-0.2-1.3-0.4C111.7,135.2,111.3,134.8,111,134.3z"/>
			<path d="M117.4,128.6l4.5,0.2l0,0.7l-3.7-0.2l-0.1,2.3l3.7,0.2l0,0.7l-3.7-0.1l-0.1,2.9l3.7,0.1l0,0.7l-4.5-0.2L117.4,128.6z"/>
			<path d="M122.6,136l1.3-7.2l0.1,0l3.1,6l3.3-5.7l0.1,0l1,7.2l-0.8,0l-0.7-5.1l-2.9,5l-0.2,0l-2.7-5.3l-0.9,5.2L122.6,136z"/>
			<path d="M136.4,129.4l3.5,7.2l-0.9,0l-1.2-2.4l-3.4-0.1l-1.3,2.3l-0.9,0l3.9-7L136.4,129.4z M136.2,130.9l-1.4,2.5l2.7,0.1
				L136.2,130.9z"/>
			<path d="M141,136.7l0.2-7l0.2,0l5.1,5.6l0.1-5.4l0.8,0l-0.2,7l-0.2,0l-5.1-5.5l-0.1,5.3L141,136.7z"/>
			<path d="M152.4,130.1l3.5,7.1l-0.9,0l-1.2-2.3l-3.4-0.1l-1.3,2.2l-0.9,0l3.9-6.8L152.4,130.1z M152.3,131.6l-1.4,2.5l2.7,0.1
				L152.3,131.6z"/>
			<path d="M51.5,144.4l1.3-7.9l0.1,0l3.1,6.6l3.3-6.3l0.1,0l1,7.9l-0.8,0L59,139l-2.9,5.5l-0.2,0l-2.7-5.8l-0.9,5.7L51.5,144.4z"/>
			<path d="M65.3,137l3.5,7.9l-0.9,0l-1.2-2.6l-3.4-0.1l-1.3,2.5l-0.9,0l3.9-7.7L65.3,137z M65.2,138.6l-1.4,2.8l2.7,0.1L65.2,138.6
				z M65.6,134.7l1.2,0l-1.6,1.6l-0.7,0L65.6,134.7z"/>
			<path d="M69.1,143.4l0.7-0.4c0.5,0.9,1,1.3,1.6,1.3c0.3,0,0.5,0,0.8-0.2c0.2-0.1,0.4-0.3,0.5-0.5c0.1-0.2,0.2-0.4,0.2-0.6
				c0-0.3-0.1-0.5-0.3-0.8c-0.2-0.3-0.7-0.8-1.3-1.3c-0.6-0.5-1-0.9-1.2-1.1c-0.3-0.4-0.4-0.8-0.4-1.2c0-0.3,0.1-0.6,0.3-0.9
				c0.2-0.3,0.4-0.5,0.7-0.6c0.3-0.1,0.6-0.2,1-0.2c0.4,0,0.7,0.1,1,0.3c0.3,0.2,0.7,0.5,1,1l-0.7,0.5c-0.3-0.4-0.5-0.7-0.7-0.8
				c-0.2-0.1-0.4-0.2-0.7-0.2c-0.3,0-0.6,0.1-0.8,0.3c-0.2,0.2-0.3,0.4-0.3,0.7c0,0.2,0,0.3,0.1,0.5c0.1,0.2,0.2,0.3,0.4,0.5
				c0.1,0.1,0.4,0.4,1,0.8c0.7,0.5,1.1,1,1.4,1.4c0.2,0.4,0.4,0.8,0.4,1.2c0,0.6-0.2,1-0.7,1.4c-0.4,0.4-1,0.6-1.6,0.6
				c-0.5,0-0.9-0.1-1.3-0.4C69.8,144.4,69.5,144,69.1,143.4z"/>
			<path d="M78.4,137.4l1.6,0.1c0.6,0,1.1,0.1,1.4,0.3c0.3,0.2,0.6,0.4,0.8,0.7c0.2,0.3,0.3,0.6,0.3,1c0,0.3-0.1,0.6-0.3,0.9
				c-0.2,0.3-0.4,0.5-0.8,0.7c0.4,0.1,0.7,0.3,0.9,0.5c0.2,0.2,0.4,0.4,0.5,0.7c0.1,0.3,0.2,0.5,0.2,0.8c0,0.6-0.3,1.1-0.7,1.5
				c-0.5,0.4-1.1,0.6-1.9,0.6l-2.2-0.1L78.4,137.4z M79.1,141.4l-0.1,2.9l1,0c0.6,0,1,0,1.3-0.1c0.3-0.1,0.5-0.3,0.7-0.5
				c0.2-0.2,0.3-0.5,0.3-0.7c0-0.3-0.1-0.6-0.3-0.9c-0.2-0.3-0.5-0.4-0.9-0.5c-0.3-0.1-0.7-0.1-1.4-0.1L79.1,141.4z M79.2,138.2
				l-0.1,2.4l0.5,0c0.5,0,1,0,1.2-0.1c0.3-0.1,0.5-0.2,0.6-0.4c0.2-0.2,0.2-0.4,0.2-0.7c0-0.3-0.1-0.6-0.4-0.8
				c-0.2-0.2-0.6-0.3-1.2-0.3L79.2,138.2z"/>
			<path d="M87.8,137.7l3.5,7.6l-0.9,0l-1.2-2.5l-3.4-0.1l-1.3,2.5l-0.9,0l3.9-7.5L87.8,137.7z M87.7,139.3l-1.4,2.7l2.7,0.1
				L87.7,139.3z"/>
			<path d="M92.7,137.9l1.6,0.1c0.9,0,1.5,0.1,1.8,0.2c0.5,0.1,0.8,0.3,1.1,0.7c0.3,0.3,0.4,0.8,0.4,1.2c0,0.4-0.1,0.8-0.3,1.1
				c-0.2,0.3-0.5,0.5-0.9,0.7c-0.4,0.1-0.9,0.2-1.6,0.2l2.8,3.5l-1,0l-2.8-3.5l-0.4,0l-0.1,3.5l-0.8,0L92.7,137.9z M93.4,138.7
				l-0.1,2.5l1.4,0.1c0.5,0,0.9,0,1.2-0.1c0.3-0.1,0.5-0.2,0.6-0.4c0.1-0.2,0.2-0.4,0.2-0.7c0-0.3-0.1-0.5-0.2-0.7
				c-0.1-0.2-0.3-0.4-0.6-0.5c-0.2-0.1-0.6-0.2-1.2-0.2L93.4,138.7z"/>
			<path d="M102.4,138.2l3.5,7.5l-0.9,0l-1.2-2.5l-3.4-0.1l-1.3,2.4l-0.9,0l3.9-7.3L102.4,138.2z M102.3,139.8l-1.4,2.6l2.7,0.1
				L102.3,139.8z"/>
			<path d="M105.5,139l0-0.7l4.3,0.1l0,0.7l-1.8-0.1l-0.2,6.6l-0.8,0l0.2-6.6L105.5,139z"/>
			<path d="M114.7,138.4c1.2,0,2.2,0.4,3,1.2c0.8,0.8,1.2,1.7,1.1,2.7c0,1.1-0.4,2-1.3,2.7c-0.8,0.7-1.8,1.1-3,1
				c-1.2,0-2.1-0.4-2.9-1.2c-0.8-0.8-1.2-1.7-1.1-2.7c0-0.7,0.2-1.4,0.6-1.9c0.4-0.6,0.9-1,1.5-1.4
				C113.2,138.6,113.9,138.4,114.7,138.4z M114.7,139.1c-0.6,0-1.1,0.1-1.7,0.4c-0.5,0.3-0.9,0.6-1.3,1.1c-0.3,0.5-0.5,1-0.5,1.6
				c0,0.9,0.3,1.6,0.9,2.2c0.6,0.6,1.4,0.9,2.3,1c0.6,0,1.2-0.1,1.7-0.4c0.5-0.3,0.9-0.6,1.2-1.1c0.3-0.5,0.5-1,0.5-1.6
				c0-0.6-0.1-1.1-0.4-1.6c-0.3-0.5-0.7-0.9-1.2-1.2C115.8,139.3,115.3,139.2,114.7,139.1z"/>
			<path d="M123.1,146.1l0.2-7.2l1.6,0.1c1.2,0,2,0.1,2.6,0.3c0.8,0.3,1.3,0.7,1.8,1.3c0.4,0.6,0.6,1.3,0.6,2.2
				c0,0.7-0.2,1.3-0.6,1.9c-0.4,0.5-0.8,0.9-1.4,1.2c-0.6,0.2-1.3,0.4-2.3,0.3L123.1,146.1z M123.9,145.4l0.9,0c1.1,0,1.8,0,2.3-0.1
				c0.6-0.2,1.1-0.5,1.4-0.9c0.4-0.4,0.5-1,0.6-1.7c0-0.7-0.2-1.3-0.5-1.8c-0.4-0.5-0.9-0.9-1.5-1.1c-0.5-0.2-1.3-0.2-2.4-0.3
				l-0.6,0L123.9,145.4z"/>
			<path d="M131.3,139.1l4.5,0.1l0,0.7l-3.7-0.1l-0.1,2.2l3.7,0.1l0,0.7l-3.7-0.1l-0.1,2.8l3.7,0.1l0,0.7l-4.5-0.1L131.3,139.1z"/>
			<path d="M137.1,139.3l0.8,0l-0.2,6.4l3,0.1l0,0.7l-3.8-0.1L137.1,139.3z"/>
			<path d="M148.3,139.7l3.5,7.1l-0.9,0l-1.2-2.3l-3.4-0.1l-1.3,2.3l-0.9,0l3.9-6.9L148.3,139.7z M148.1,141.1l-1.4,2.5l2.7,0.1
				L148.1,141.1z"/>
			<path d="M152.9,146.7l0.2-6.9l0.2,0l5.1,5.4l0.1-5.3l0.8,0l-0.2,6.9l-0.2,0l-5.1-5.4l-0.1,5.2L152.9,146.7z M157.8,138.5l0.4,0.5
				c-0.3,0.2-0.5,0.3-0.7,0.3c-0.2,0.1-0.4,0.1-0.6,0.1c-0.3,0-0.5-0.1-0.8-0.2c-0.2-0.1-0.4-0.2-0.4-0.2c-0.1,0-0.2,0-0.3,0
				c-0.1,0-0.2,0-0.4,0c-0.1,0-0.3,0.1-0.5,0.3l-0.3-0.5c0.3-0.3,0.7-0.4,1.2-0.4c0.2,0,0.5,0.1,0.8,0.2c0.3,0.1,0.5,0.2,0.7,0.2
				C157.2,138.7,157.5,138.6,157.8,138.5z"/>
			<path d="M164.8,140c1.2,0,2.2,0.4,3,1.1c0.8,0.7,1.2,1.6,1.1,2.6c0,1-0.4,1.8-1.3,2.5c-0.8,0.7-1.8,1-3,1c-1.2,0-2.1-0.4-2.9-1.1
				c-0.8-0.7-1.2-1.6-1.1-2.6c0-0.7,0.2-1.3,0.6-1.8c0.4-0.6,0.9-1,1.5-1.3C163.4,140.1,164.1,140,164.8,140z M164.9,140.6
				c-0.6,0-1.1,0.1-1.7,0.3c-0.5,0.2-0.9,0.6-1.3,1c-0.3,0.4-0.5,0.9-0.5,1.5c0,0.8,0.3,1.5,0.9,2.1c0.6,0.6,1.4,0.9,2.3,0.9
				c0.6,0,1.2-0.1,1.7-0.4c0.5-0.2,0.9-0.6,1.2-1c0.3-0.4,0.5-0.9,0.5-1.5c0-0.5-0.1-1-0.4-1.5c-0.3-0.4-0.7-0.8-1.2-1.1
				C166,140.8,165.5,140.7,164.9,140.6z"/>
		</g>
	</g>
	<g>
		<g>
			<path class="st0" d="M33.1,164.1H35v9.5h-0.9V165h-1.5L33.1,164.1z"/>
			<path class="st0" d="M43.1,168.4c0.6,0.3,1.1,0.7,1.4,1.1c0.3,0.4,0.4,0.9,0.4,1.4c0,0.7-0.2,1.4-0.7,1.9c-0.6,0.7-1.4,1-2.5,1
				c-1.1,0-1.8-0.3-2.4-0.9c-0.5-0.6-0.8-1.3-0.8-2c0-0.5,0.1-1,0.4-1.4s0.8-0.8,1.4-1.1c-0.5-0.2-0.8-0.5-1-0.9
				c-0.2-0.4-0.3-0.7-0.3-1.1c0-0.4,0.1-0.8,0.4-1.2c0.2-0.4,0.6-0.7,1-0.9c0.4-0.2,0.9-0.3,1.4-0.3c0.5,0,1,0.1,1.4,0.3
				c0.4,0.2,0.8,0.5,1,0.9c0.2,0.4,0.4,0.8,0.4,1.2c0,0.4-0.1,0.8-0.3,1.1C43.9,167.8,43.6,168.1,43.1,168.4z M41.7,168.9
				c-0.7,0-1.2,0.2-1.6,0.6c-0.4,0.4-0.7,0.9-0.7,1.5c0,0.3,0.1,0.7,0.3,1c0.2,0.3,0.5,0.5,0.8,0.7c0.3,0.2,0.7,0.3,1.2,0.3
				c0.7,0,1.2-0.2,1.7-0.6c0.4-0.4,0.6-0.9,0.6-1.4c0-0.5-0.2-1-0.6-1.4C42.9,169.1,42.3,168.9,41.7,168.9z M41.7,164.8
				c-0.5,0-1,0.2-1.3,0.5c-0.3,0.3-0.5,0.7-0.5,1.1c0,0.4,0.2,0.8,0.6,1.1c0.4,0.3,0.8,0.5,1.3,0.5c0.3,0,0.6-0.1,0.9-0.2
				c0.3-0.2,0.5-0.4,0.7-0.6c0.2-0.3,0.2-0.5,0.2-0.8c0-0.4-0.2-0.7-0.5-1.1C42.7,164.9,42.3,164.8,41.7,164.8z"/>
			<path class="st0" d="M49.4,169.6H53v0.8h-3.6V169.6z"/>
			<path class="st0" d="M54.9,167.1H54c0-0.9,0.3-1.7,0.9-2.3c0.6-0.6,1.3-0.9,2.2-0.9c0.9,0,1.6,0.3,2.1,0.8c0.5,0.6,0.8,1.2,0.8,2
				c0,0.5-0.1,1-0.4,1.5c-0.3,0.5-0.8,1.1-1.5,1.9l-2.4,2.5h4.4v0.9h-6.5l3.6-3.9c0.7-0.8,1.2-1.4,1.4-1.8c0.2-0.4,0.3-0.8,0.3-1.2
				c0-0.5-0.2-1-0.6-1.4c-0.4-0.4-0.9-0.6-1.5-0.6c-0.6,0-1.1,0.2-1.5,0.6C55.2,165.8,55,166.3,54.9,167.1z"/>
			<path class="st0" d="M63.2,164.1h1.9v9.5h-0.9V165h-1.5L63.2,164.1z"/>
		</g>
		<g>
			<path class="st0" d="M73.5,173.6l0.1-9.3l1.9,0c1.4,0,2.4,0.1,3,0.4c0.9,0.3,1.6,0.9,2.1,1.7c0.5,0.8,0.7,1.7,0.7,2.8
				c0,0.9-0.2,1.7-0.6,2.4c-0.4,0.7-0.9,1.2-1.6,1.5c-0.6,0.3-1.5,0.5-2.7,0.5L73.5,173.6z M74.4,172.7l1.1,0c1.3,0,2.2-0.1,2.7-0.2
				c0.7-0.2,1.3-0.6,1.7-1.2c0.4-0.6,0.6-1.3,0.6-2.2c0-0.9-0.2-1.7-0.6-2.3c-0.4-0.6-1-1.1-1.8-1.3c-0.6-0.2-1.5-0.3-2.9-0.3
				l-0.7,0L74.4,172.7z"/>
			<path class="st0" d="M83.3,164.4l5.3,0.1l0,0.9l-4.4-0.1l0,2.9l4.4,0.1l0,0.9l-4.4-0.1l0,3.6l4.4,0.1l0,0.9l-5.3-0.1L83.3,164.4z
				"/>
			<path class="st0" d="M93.6,173.9l0.1-9.3l0.2,0l6.1,7.2l0.1-7.1l0.9,0l-0.1,9.3l-0.2,0l-6-7.1l-0.1,7L93.6,173.9z"/>
			<path class="st0" d="M107.7,164.5c1.4,0,2.6,0.5,3.5,1.5c0.9,0.9,1.4,2.1,1.4,3.5c0,1.4-0.5,2.5-1.5,3.4c-1,0.9-2.1,1.4-3.5,1.4
				c-1.4,0-2.5-0.5-3.5-1.5c-0.9-1-1.4-2.1-1.4-3.4c0-0.9,0.2-1.7,0.7-2.5c0.4-0.8,1-1.3,1.8-1.8C106,164.7,106.9,164.5,107.7,164.5
				z M107.8,165.4c-0.7,0-1.3,0.2-2,0.5c-0.6,0.3-1.1,0.8-1.5,1.4c-0.4,0.6-0.5,1.3-0.5,2c0,1.1,0.4,2,1.1,2.8
				c0.8,0.8,1.7,1.2,2.7,1.2c0.7,0,1.4-0.2,2-0.5c0.6-0.3,1.1-0.8,1.5-1.4c0.4-0.6,0.5-1.3,0.5-2c0-0.7-0.2-1.4-0.5-2
				c-0.3-0.6-0.8-1.1-1.4-1.4C109.1,165.6,108.5,165.4,107.8,165.4z"/>
			<path class="st0" d="M113.8,164.8l1,0l3,7.2l3.2-7.1l1,0l-4.2,9.2l-0.2,0L113.8,164.8z"/>
			<path class="st0" d="M123.5,165l0.9,0l-0.1,9.3l-0.9,0L123.5,165z"/>
			<path class="st0" d="M126.5,165l5.3,0.1l0,0.9l-4.4-0.1l0,2.9l4.4,0.1l0,0.9l-4.4-0.1l0,3.6l4.4,0.1l0,0.9l-5.3-0.1L126.5,165z"
				/>
			<path class="st0" d="M132.9,174.4l1.4-9.3l0.2,0l3.7,7.7l3.8-7.6l0.1,0l1.2,9.3l-0.9,0l-0.8-6.6l-3.4,6.6l-0.2,0l-3.2-6.7l-1,6.7
				L132.9,174.4z"/>
			<path class="st0" d="M145.3,165.2l1.8,0c0.7,0,1.3,0.1,1.7,0.3c0.4,0.2,0.7,0.5,0.9,0.8c0.2,0.4,0.3,0.8,0.3,1.2
				c0,0.4-0.1,0.8-0.3,1.1c-0.2,0.3-0.5,0.6-0.9,0.8c0.5,0.2,0.8,0.4,1.1,0.6c0.3,0.2,0.5,0.5,0.6,0.8c0.1,0.3,0.2,0.7,0.2,1
				c0,0.7-0.3,1.4-0.8,1.9c-0.6,0.5-1.3,0.8-2.2,0.7l-2.5,0L145.3,165.2z M146.2,170.1l0,3.6l1.1,0c0.7,0,1.2-0.1,1.5-0.2
				c0.3-0.1,0.6-0.3,0.8-0.6c0.2-0.3,0.3-0.6,0.3-0.9c0-0.4-0.1-0.8-0.4-1.1c-0.3-0.3-0.6-0.5-1.1-0.6c-0.3-0.1-0.9-0.1-1.6-0.1
				L146.2,170.1z M146.2,166.1l0,3l0.5,0c0.6,0,1.1,0,1.4-0.2c0.3-0.1,0.5-0.3,0.7-0.6c0.2-0.3,0.3-0.5,0.3-0.9c0-0.4-0.1-0.8-0.4-1
				c-0.3-0.2-0.8-0.4-1.4-0.4L146.2,166.1z"/>
			<path class="st0" d="M152.8,165.3l1.8,0c1,0,1.7,0.1,2.1,0.2c0.5,0.1,1,0.4,1.3,0.8c0.3,0.4,0.5,0.9,0.5,1.5
				c0,0.5-0.1,0.9-0.4,1.3c-0.2,0.4-0.6,0.7-1,0.9c-0.4,0.2-1.1,0.3-1.8,0.3l3.3,4.3l-1.1,0l-3.3-4.3l-0.5,0l-0.1,4.3l-0.9,0
				L152.8,165.3z M153.7,166.2l0,3.2l1.6,0c0.6,0,1.1,0,1.4-0.2c0.3-0.1,0.5-0.3,0.7-0.6c0.2-0.3,0.3-0.5,0.3-0.9
				c0-0.3-0.1-0.6-0.2-0.9c-0.2-0.3-0.4-0.4-0.7-0.6c-0.3-0.1-0.7-0.2-1.4-0.2L153.7,166.2z"/>
			<path class="st0" d="M160.6,165.4l5.3,0.1l0,0.9l-4.4-0.1l0,2.9l4.4,0.1l0,0.9l-4.4-0.1l0,3.6l4.4,0.1l0,0.9l-5.3-0.1
				L160.6,165.4z"/>
		</g>
	</g>
</g>
</svg>
