<?xml version="1.0" encoding="utf-8"?>
<!-- Generator: Adobe Illustrator 19.2.1, SVG Export Plug-In . SVG Version: 6.00 Build 0)  -->
<svg version="1.1" id="Capa_1" xmlns="http://www.w3.org/2000/svg" xmlns:xlink="http://www.w3.org/1999/xlink" x="0px" y="0px"
	 viewBox="0 0 110 110" style="enable-background:new 0 0 110 110;" xml:space="preserve">
<style type="text/css">
	.st0{enable-background:new    ;}
	.st1{fill:#FFFFFF;}
	.st2{fill:none;stroke:#FFFFFF;stroke-width:2;stroke-miterlimit:10;}
</style>
<g class="st0">
	<path class="st1" d="M26,70.3h-4.4V56.6l-4.3,1.3v-3.3l8.2-2.8H26V70.3z"/>
</g>
<g class="st0">
	<path class="st1" d="M41.5,56.8c0,0.9-0.2,1.7-0.7,2.4s-1.1,1.3-1.8,1.7c0.9,0.4,1.6,1.1,2.1,1.7c0.5,0.8,0.8,1.7,0.8,2.7
		c0,1.7-0.6,3-1.7,4c-1.2,1-2.7,1.5-4.8,1.5c-2,0-3.6-0.5-4.8-1.5s-1.7-2.2-1.7-4c0-1,0.3-1.8,0.8-2.6c0.5-0.8,1.3-1.4,2.1-1.8
		c-0.8-0.4-1.5-1-1.8-1.7c-0.4-0.7-0.7-1.5-0.7-2.4c0-1.7,0.6-2.9,1.7-3.9c1.1-1,2.6-1.5,4.5-1.5c1.8,0,3.4,0.5,4.5,1.5
		C40.8,53.8,41.5,55.2,41.5,56.8z M37.5,64.9c0-0.8-0.2-1.4-0.6-1.7s-0.9-0.6-1.6-0.6s-1.2,0.2-1.6,0.6c-0.4,0.4-0.6,1-0.6,1.7
		c0,0.8,0.2,1.4,0.6,1.7c0.4,0.4,1,0.7,1.6,0.7c0.7,0,1.2-0.2,1.6-0.7C37.2,66.2,37.5,65.7,37.5,64.9z M35.3,54.8
		c-0.6,0-1.1,0.2-1.4,0.6c-0.3,0.4-0.5,0.9-0.5,1.6s0.2,1.2,0.5,1.7s0.8,0.6,1.4,0.6s1.1-0.2,1.4-0.6c0.3-0.4,0.5-1,0.5-1.7
		s-0.2-1.2-0.5-1.6S36,54.8,35.3,54.8z"/>
	<path class="st1" d="M56.8,51.8l4.2,13l4.2-13H71v18.6h-4.5v-4.4l0.4-8.9l-4.5,13.3h-3L54.8,57l0.4,8.9v4.4h-4.5V51.8H56.8z"/>
	<path class="st1" d="M83.4,65.4c0-0.7-0.2-1.2-0.7-1.6s-1.3-0.8-2.4-1.2c-1.2-0.4-2.1-0.8-2.9-1.2c-2.4-1.2-3.6-2.8-3.6-4.9
		c0-1.1,0.3-1.9,0.9-2.7s1.5-1.4,2.5-1.8c1.1-0.5,2.3-0.7,3.7-0.7s2.5,0.2,3.6,0.7s1.8,1.2,2.5,2c0.6,0.9,0.9,1.8,0.9,3h-4.5
		c0-0.8-0.2-1.4-0.7-1.7c-0.5-0.4-1.1-0.6-1.8-0.6S79.4,55,79,55.3c-0.5,0.4-0.7,0.8-0.7,1.4c0,0.5,0.3,0.9,0.8,1.3s1.5,0.8,2.7,1.2
		c1.3,0.4,2.3,0.9,3.2,1.4c2,1.2,3,2.7,3,4.8c0,1.7-0.6,2.9-1.8,3.9s-2.9,1.4-5,1.4c-1.6,0-2.9-0.3-4.1-0.8
		c-1.3-0.6-2.1-1.3-2.7-2.2c-0.6-1-1-2-1-3.3h4.5c0,1,0.3,1.7,0.8,2.2s1.4,0.7,2.5,0.7c0.8,0,1.4-0.2,1.7-0.5
		C83.2,66.6,83.4,66.1,83.4,65.4z"/>
	<path class="st1" d="M95.1,70.3h-4.5V51.8h4.5V70.3z"/>
</g>
<g class="st0">
	<path class="st1" d="M24.3,78.7c-0.1,0.8-0.4,1.5-0.9,1.9c-0.6,0.5-1.2,0.7-2.1,0.7c-1,0-1.7-0.3-2.3-1s-0.9-1.6-0.9-2.7v-0.5
		c0-0.8,0.1-1.4,0.4-1.9c0.3-0.6,0.6-1,1.1-1.3s1.1-0.5,1.7-0.5c0.9,0,1.6,0.2,2.1,0.7c0.6,0.5,0.9,1.2,1,2h-1.6
		c0-0.5-0.2-0.9-0.4-1.1c-0.2-0.2-0.6-0.3-1.1-0.3s-0.9,0.2-1.2,0.6c-0.3,0.4-0.4,1-0.4,1.7v0.6c0,0.9,0.1,1.5,0.4,1.8
		c0.3,0.4,0.7,0.6,1.2,0.6s0.9-0.1,1.1-0.3c0.2-0.2,0.4-0.6,0.4-1.1L24.3,78.7L24.3,78.7z"/>
	<path class="st1" d="M31.7,77.6c0,0.8-0.1,1.5-0.4,1.9s-0.7,1-1.2,1.4c-0.5,0.3-1.1,0.5-1.7,0.5s-1.2-0.2-1.7-0.5s-0.9-0.8-1.2-1.3
		C25.1,79,25,78.2,25,77.7v-0.4c0-0.8,0.1-1.5,0.4-2c0.3-0.6,0.7-1,1.2-1.4s1.1-0.5,1.7-0.5c0.7,0,1.2,0.2,1.7,0.5
		c0.6,0.3,0.9,0.8,1.2,1.4s0.4,1.3,0.4,1.9V77.6z M30,77.2c0-0.8-0.1-1.5-0.4-1.8c-0.3-0.4-0.7-0.6-1.3-0.6c-0.5,0-1,0.2-1.3,0.6
		s-0.4,1-0.4,1.8v0.4c0,0.8,0.1,1.4,0.4,1.8c0.3,0.5,0.7,0.7,1.3,0.7c0.5,0,1-0.2,1.3-0.6s0.4-1.1,0.4-1.8V77.2z"/>
	<path class="st1" d="M39,81.2h-1.6l-3.1-5v5h-1.6v-7.7h1.6l3.1,5v-5H39V81.2z"/>
	<path class="st1" d="M48.5,74.8h-2.3v6.4h-1.6v-6.4h-2.3v-1.3h6.2C48.6,73.4,48.6,74.8,48.5,74.8z"/>
	<path class="st1" d="M53.2,79.7h-2.8l-0.5,1.6h-1.6l2.8-7.7h1.5l2.9,7.7h-1.7L53.2,79.7z M50.8,78.3h1.9l-1-2.9L50.8,78.3z"/>
	<path class="st1" d="M58.9,78.3h-1.3v2.8H56v-7.7h2.8c0.9,0,1.7,0.2,2.1,0.6c0.5,0.4,0.8,1,0.8,1.7c0,0.5-0.1,1-0.3,1.3
		c-0.2,0.4-0.6,0.6-1.1,0.9l1.7,3.1v0.1h-1.7L58.9,78.3z M57.7,77.1H59c0.4,0,0.7-0.1,0.9-0.3c0.2-0.2,0.3-0.5,0.3-0.9
		s-0.1-0.7-0.3-0.9c-0.2-0.2-0.5-0.3-1-0.3h-1.3L57.7,77.1L57.7,77.1z"/>
	<path class="st1" d="M66.1,73.4h1.7v5.3c0,0.5-0.1,0.9-0.3,1.3c-0.2,0.4-0.5,0.7-0.9,0.9c-0.4,0.2-0.9,0.3-1.4,0.3
		c-0.8,0-1.5-0.2-1.9-0.6c-0.5-0.4-0.7-1-0.7-1.7h1.6c0,0.4,0.1,0.7,0.2,0.9c0.2,0.2,0.4,0.3,0.8,0.3c0.3,0,0.6-0.1,0.7-0.3
		c0.1-0.2,0.3-0.5,0.3-0.9C66.1,78.9,66.1,73.4,66.1,73.4z"/>
	<path class="st1" d="M73.6,77.8h-3v2h3.6v1.3h-5.1v-7.7h5.1v1.3h-3.6v1.8h3V77.8z"/>
	<path class="st1" d="M80.9,74.8h-2.3v6.4H77v-6.4h-2.3v-1.3h6.2C80.9,73.4,80.9,74.8,80.9,74.8z"/>
	<path class="st1" d="M85.6,79.7h-2.8l-0.5,1.5h-1.7l2.8-7.7h1.5l2.9,7.7h-1.7L85.6,79.7z M83.2,78.3h1.9l-1-2.9L83.2,78.3z"/>
	<path class="st1" d="M92.4,79.2c0-0.3-0.1-0.5-0.3-0.7c-0.2-0.2-0.6-0.3-1.2-0.5s-1-0.4-1.3-0.5c-0.9-0.5-1.3-1.1-1.3-1.9
		c0-0.4,0.1-0.8,0.4-1.1c0.3-0.3,0.6-0.6,1-0.8c0.5-0.2,1-0.3,1.5-0.3c0.6,0,1.1,0.1,1.5,0.3c0.4,0.2,0.8,0.5,1,0.9s0.4,0.8,0.4,1.3
		h-1.6c0-0.4-0.1-0.6-0.3-0.8c-0.2-0.2-0.5-0.3-1-0.3c-0.4,0-0.7,0.1-0.9,0.3c-0.2,0.2-0.3,0.4-0.3,0.7s0.1,0.5,0.4,0.6
		c0.3,0.2,0.6,0.3,1.1,0.5c0.9,0.3,1.6,0.6,1.9,1c0.4,0.4,0.6,0.9,0.6,1.5c0,0.7-0.3,1.2-0.8,1.6s-1.2,0.6-2,0.6
		c-0.6,0-1.2-0.1-1.7-0.3c-0.5-0.2-0.9-0.5-1.1-0.9C88.1,79.9,88,79.5,88,79h1.6c0,0.9,0.5,1.3,1.6,1.3c0.4,0,0.7-0.1,0.9-0.2
		S92.4,79.4,92.4,79.2z"/>
	<path class="st1" d="M18.4,89.2v2.7h-1.6v-7.7h3c0.6,0,1.1,0.1,1.6,0.3c0.5,0.2,0.8,0.5,1,0.9s0.4,0.9,0.4,1.4
		c0,0.8-0.3,1.4-0.8,1.7c-0.5,0.4-1.3,0.7-2.1,0.7C19.8,89.2,18.4,89.2,18.4,89.2z M18.4,87.8h1.5c0.4,0,0.8-0.1,1-0.3
		c0.2-0.2,0.3-0.5,0.3-0.9s-0.1-0.7-0.3-0.9c-0.2-0.2-0.5-0.4-0.9-0.4h-1.5L18.4,87.8L18.4,87.8z"/>
	<path class="st1" d="M27,90.2h-2.8l-0.5,1.6H22l2.8-7.7h1.5l2.9,7.7h-1.7L27,90.2z M24.8,89.1h1.9l-1-2.9L24.8,89.1z"/>
	<path class="st1" d="M32.8,89.1h-1.3v2.8h-1.6v-7.7h2.8c0.9,0,1.7,0.2,2.1,0.6c0.5,0.4,0.8,1,0.8,1.7c0,0.5-0.1,1-0.3,1.3
		c-0.2,0.4-0.6,0.6-1.1,0.9l1.7,3.1v0.1h-1.7L32.8,89.1z M31.5,87.8h1.3c0.4,0,0.7-0.1,0.9-0.3c0.2-0.2,0.3-0.5,0.3-0.9
		s-0.1-0.7-0.3-0.9c-0.2-0.2-0.5-0.3-1-0.3h-1.3L31.5,87.8L31.5,87.8z"/>
	<path class="st1" d="M42.3,85.4H40v6.4h-1.6v-6.4h-2.3v-1.3h6.2C42.4,84.1,42.4,85.4,42.3,85.4z"/>
	<path class="st1" d="M45,91.8h-1.6v-7.7H45V91.8z"/>
	<path class="st1" d="M52.5,89.3c-0.1,0.8-0.4,1.5-0.9,1.9c-0.6,0.5-1.4,0.7-2.2,0.7c-1,0-1.7-0.3-2.3-1s-0.9-1.6-0.9-2.7v-0.5
		c0-0.8,0.1-1.4,0.4-1.9c0.3-0.6,0.6-1,1.1-1.3s1.1-0.5,1.7-0.5c0.9,0,1.6,0.2,2.1,0.7c0.6,0.5,0.9,1.2,1,2h-1.6
		c0-0.5-0.2-0.9-0.4-1.1s-0.6-0.3-1.1-0.3s-0.9,0.2-1.2,0.6s-0.4,1-0.4,1.7v0.6c0,0.9,0.1,1.5,0.4,1.8c0.3,0.4,0.7,0.6,1.2,0.6
		s0.9-0.1,1.1-0.3c0.2-0.2,0.4-0.6,0.4-1.1L52.5,89.3L52.5,89.3z"/>
	<path class="st1" d="M55.2,91.8h-1.6v-7.7h1.6V91.8z"/>
	<path class="st1" d="M58.2,89.2v2.7h-1.6v-7.7h3c0.6,0,1.1,0.1,1.6,0.3c0.5,0.2,0.8,0.5,1,0.9s0.4,0.9,0.4,1.4
		c0,0.8-0.3,1.4-0.8,1.7c-0.5,0.4-1.3,0.7-2.1,0.7H58.2z M58.2,87.8h1.5c0.4,0,0.8-0.1,1-0.3c0.2-0.2,0.3-0.5,0.3-0.9
		s-0.1-0.7-0.3-0.9c-0.2-0.2-0.5-0.4-0.9-0.4h-1.5L58.2,87.8L58.2,87.8z"/>
	<path class="st1" d="M66.9,90.2h-2.8l-0.5,1.6h-1.7l2.8-7.7h1.5l2.9,7.7h-1.7L66.9,90.2z M64.6,89.1h1.9l-1-2.9L64.6,89.1z"/>
	<path class="st1" d="M76.2,91.8h-1.6l-3.1-5v5h-1.6v-7.7h1.6l3.1,5v-5h1.6V91.8z"/>
	<path class="st1" d="M83.2,85.4h-2.3v6.4h-1.6v-6.4h-2.3v-1.3h6.2C83.1,84.1,83.1,85.4,83.2,85.4z"/>
	<path class="st1" d="M88.7,88.6h-3v2h3.6v1.3h-5.1v-7.7h5.1v1.3h-3.6v1.8h3V88.6z"/>
	<path class="st1" d="M94.1,89.8c0-0.3-0.1-0.5-0.3-0.7c-0.2-0.2-0.6-0.3-1.2-0.5s-1-0.4-1.3-0.5c-0.9-0.5-1.3-1.1-1.3-1.9
		c0-0.4,0.1-0.8,0.4-1.1c0.2-0.3,0.6-0.6,1-0.8c0.4-0.2,1-0.3,1.5-0.3c0.6,0,1.1,0.1,1.5,0.3c0.4,0.2,0.8,0.5,1,0.9s0.4,0.8,0.4,1.3
		h-1.6c0-0.4-0.1-0.6-0.3-0.8c-0.2-0.2-0.5-0.3-1-0.3c-0.4,0-0.7,0.1-0.9,0.3c-0.2,0.2-0.3,0.4-0.3,0.7c0,0.3,0.1,0.5,0.4,0.6
		c0.3,0.2,0.6,0.3,1.1,0.5c0.9,0.3,1.6,0.6,1.9,1c0.4,0.4,0.6,0.9,0.6,1.5c0,0.7-0.3,1.2-0.8,1.6s-1.2,0.6-2,0.6
		c-0.6,0-1.2-0.1-1.7-0.3S90.2,91.4,90,91c-0.3-0.4-0.4-0.8-0.4-1.3h1.6c0,0.9,0.5,1.3,1.6,1.3c0.4,0,0.7-0.1,0.9-0.2
		C93.9,90.6,94.1,90.2,94.1,89.8z"/>
</g>
<g class="st0">
	<path class="st1" d="M23.6,47.2H22V44h-3.1v3.3h-1.6v-7.7h1.6v3.1H22v-3.1h1.6V47.2z"/>
	<path class="st1" d="M29.5,45.8h-2.8l-0.5,1.5h-1.7l2.8-7.7h1.5l2.9,7.7H30L29.5,45.8z M27.2,44.5h1.9l-1-2.9L27.2,44.5z"/>
	<path class="st1" d="M36.3,45.2c0-0.3-0.1-0.5-0.3-0.7s-0.6-0.3-1.2-0.5c-0.6-0.2-1-0.4-1.3-0.5c-0.9-0.5-1.3-1.1-1.3-1.9
		c0-0.4,0.1-0.8,0.4-1.1c0.2-0.3,0.6-0.6,1-0.8s1-0.3,1.5-0.3c0.6,0,1.1,0.1,1.5,0.3s0.8,0.5,1,0.9s0.4,0.8,0.4,1.3h-1.6
		c0-0.4-0.1-0.6-0.3-0.8s-0.5-0.3-1-0.3c-0.4,0-0.7,0.1-0.9,0.3S34,41.6,34,41.9s0.1,0.5,0.4,0.6c0.3,0.1,0.6,0.3,1.1,0.5
		c0.9,0.3,1.6,0.6,1.9,1c0.4,0.4,0.6,0.9,0.6,1.5c0,0.7-0.3,1.2-0.8,1.6c-0.5,0.4-1.2,0.6-2,0.6c-0.6,0-1.2-0.1-1.7-0.3
		s-0.9-0.5-1.1-0.9C32.1,46,32,45.6,32,45.1h1.6c0,0.9,0.5,1.3,1.6,1.3c0.4,0,0.7-0.1,0.9-0.2C36.2,46,36.3,45.5,36.3,45.2z"/>
	<path class="st1" d="M44.8,40.8h-2.3v6.4H41v-6.4h-2.4v-1.3h6.2L44.8,40.8L44.8,40.8z"/>
	<path class="st1" d="M49.5,45.8h-2.8l-0.5,1.5h-1.7l2.8-7.7h1.5l2.9,7.7H50L49.5,45.8z M47,44.5H49l-1-2.9L47,44.5z"/>
</g>
<g>
	<g>
		<g>
			<line class="st2" x1="56.8" y1="25.5" x2="94.2" y2="25.5"/>
			<line class="st2" x1="56.8" y1="30.8" x2="94.2" y2="30.8"/>
			<line class="st2" x1="59.3" y1="34.2" x2="64.6" y2="34.2"/>
			<line class="st2" x1="66.2" y1="34.2" x2="71.6" y2="34.2"/>
			<g>
				<path class="st2" d="M94.2,43.5c0,1.7-1.3,2.9-2.9,2.9H59.7c-1.7,0-2.9-1.3-2.9-2.9V24c0-1.6,1.3-2.9,2.9-2.9h31.6
					c1.7,0,2.9,1.4,2.9,2.9V43.5z"/>
			</g>
		</g>
	</g>
</g>
</svg>
