<?xml version="1.0" encoding="utf-8"?>
<!-- Generator: Adobe Illustrator 19.2.1, SVG Export Plug-In . SVG Version: 6.00 Build 0)  -->
<svg version="1.1" id="Capa_1" xmlns="http://www.w3.org/2000/svg" xmlns:xlink="http://www.w3.org/1999/xlink" x="0px" y="0px"
	 viewBox="0 0 792 612" style="enable-background:new 0 0 792 612;" xml:space="preserve">
<style type="text/css">
	.st0{fill:#FFFFFF;}
</style>
<path class="st0" d="M481.7,152.8l31.3,113.5v-0.6c0.6,1.8,0.6,4.3,0.6,6.1c0,11-9.2,20.2-20.2,20.2h-23.9l-35.6-131.9l-14.1,4.9
	l26.4,99.4l0,0c0.6,2.5,1.2,4.9,1.2,7.4c0,11-9.2,20.2-20.2,20.2h-20.9l-35.6-131.9l-14.7,4.3l34.3,127.6h-83.4h-1.2
	c-11,0-20.2-9.2-20.2-20.9c0-1.2,0-2.5,0.6-3.7l31.3-117.1c3.1-8,10.4-13.5,19.6-13.5l0,0h63.2h3.1c7.4,0,12.9,5.5,12.9,12.9v0.6
	l0,0l44.2-11.7h0.6c1.2-0.6,3.1-0.6,4.3-0.6C472.5,137.5,479.8,144.3,481.7,152.8L481.7,152.8"/>
<path class="st0" d="M52.4,384.1c0-0.6,0.6-1.2,1.2-1.2h11.7c1.2,0,1.8,0.6,1.8,1.2L81.8,435h0.6l14.7-50.9c0-1.2,1.2-1.2,1.8-1.2
	h11.7c0.6,0,1.2,0.6,1.2,1.2v87.1c0,0.6-0.6,1.2-1.2,1.2h-10.4c-0.6,0-1.2-0.6-1.2-1.2v-57h-0.6l-11.7,41.1c0,0.6-0.6,1.2-1.8,1.2
	h-6.1c-1.2,0-1.2-0.6-1.8-1.2l-11.7-41.1h-0.6v57c0,0.6-0.6,1.2-1.2,1.2h-9.8c-0.6,0-1.2-0.6-1.2-1.2V384.1z"/>
<path class="st0" d="M179.9,384.1c0-0.6,0.6-1.2,1.2-1.2h11c0.6,0,1.2,0.6,1.2,1.2l19,87.1c0,0.6,0,1.2-1.2,1.2h-10.4
	c-1.2,0-1.2-0.6-1.2-1.2l-3.7-18.4h-17.8l-3.7,18.4c0,0.6-0.6,1.2-1.2,1.2h-11c-0.6,0-1.2-0.6-1.2-1.2L179.9,384.1z M193.4,441.7
	l-6.1-33.7h-0.6l-6.7,33.7H193.4z"/>
<path class="st0" d="M295.8,473c-0.6,0-1.2,0-1.2-1.2l-11-35.6h-2.5h-4.3c-0.6,0-0.6,0-0.6,0.6v35c0,0.6-0.6,1.2-1.2,1.2h-11.7
	c-0.6,0-1.2-0.6-1.2-1.2v-87.1c0-0.6,0.6-1.2,1.2-1.2h18.4c15.9,0,25.8,6.7,25.8,27c0,11.7-3.7,19-10.4,23.3l12.9,38.6
	c0,0.6,0,1.2-0.6,1.2h-13.5V473z M292.2,409.8c0-10.4-3.7-14.1-11.7-14.1h-4.9c-0.6,0-0.6,0-0.6,0.6v26.4c0,0.6,0,0.6,0.6,0.6h4.9
	C289.1,423.3,292.2,420.2,292.2,409.8"/>
<path class="st0" d="M370,473c-0.6,0-1.2-0.6-1.2-1.2v-74.8c0-0.6,0-0.6-0.6-0.6h-14.1c-0.6,0-1.2-0.6-1.2-1.2v-10.4
	c0-0.6,0.6-1.2,1.2-1.2h43.5c0.6,0,1.2,0.6,1.2,1.2v10.4c0,0.6-0.6,1.2-1.2,1.2h-13.5c-0.6,0-0.6,0-0.6,0.6v74.8
	c0,0.6-0.6,1.2-1.2,1.2H370z"/>
<path class="st0" d="M447.3,384.1c0-0.6,0.6-1.2,1.2-1.2h11.7c0.6,0,1.2,0.6,1.2,1.2v87.1c0,0.6-0.6,1.2-1.2,1.2h-11.7
	c-0.6,0-1.2-0.6-1.2-1.2V384.1z"/>
<path class="st0" d="M514.2,458.3c0-0.6,0.6-1.2,1.2-1.2h11c0.6,0,1.2,0.6,1.2,1.2v12.9c0,0.6-0.6,1.2-1.2,1.2h-11
	c-0.6,0-1.2-0.6-1.2-1.2V458.3z"/>
<path class="st0" d="M581,384.1c0-0.6,0.6-1.2,1.2-1.2h11.7c1.2,0,1.8,0.6,1.8,1.2l14.7,50.9h0.6l14.7-50.9c0-1.2,1.2-1.2,1.8-1.2
	h11.7c0.6,0,1.2,0.6,1.2,1.2v87.1c0,0.6-0.6,1.2-1.2,1.2h-10.4c-0.6,0-1.2-0.6-1.2-1.2v-57H627l-11.7,41.1c0,0.6-0.6,1.2-1.8,1.2
	h-6.1c-1.2,0-1.2-0.6-1.8-1.2l-11.7-41.1h-0.6v57c0,0.6-0.6,1.2-1.2,1.2h-10.4c-0.6,0-1.2-0.6-1.2-1.2v-87.1H581z"/>
<path class="st0" d="M726.4,473c-0.6,0-1.2-0.6-1.2-1.2l-10.4-28.8l0,0l-10.4,28.8c0,0.6-0.6,1.2-1.2,1.2h-11.7
	c-0.6,0-1.2-0.6-1.2-1.2l17.8-45.4L692,384.7c0-0.6,0-1.2,1.2-1.2h11.7c0.6,0,1.2,0.6,1.2,1.2l8.6,25.8l0,0l8.6-25.8
	c0-0.6,0.6-1.2,1.2-1.2h11.7c0.6,0,1.2,0.6,1.2,1.2l-15.9,41.7l17.8,45.4c0,0.6,0,1.2-1.2,1.2H726.4z"/>
</svg>
